<?xml version="1.0" encoding="utf-8"?>
<!-- Generator: Adobe Illustrator 22.1.0, SVG Export Plug-In . SVG Version: 6.00 Build 0)  -->
<svg version="1.1" id="_x32_" xmlns="http://www.w3.org/2000/svg" xmlns:xlink="http://www.w3.org/1999/xlink" x="0px" y="0px"
	 viewBox="0 0 474 297.4" style="enable-background:new 0 0 474 297.4;" xml:space="preserve">
<style type="text/css">
	.st0{fill:#4B4B4B;}
</style>
<g>
	<path class="st0" d="M20.7,161.1c8.2,18.5,11.8,31.5,12,45.6c0.2,14-3.1,28.5-6.4,41.2c-7,25.4-12.4,43.8-5.7,48.4
		c6.2,4.4,23.4-4.9,42.3-30.5c9-12.9,18.8-30.5,22.6-54.3c4.3-23.7-2.1-52.3-12-73.4c-9.7-21.6-17.5-36.3-20.6-49.9
		c-3.4-13.5-3.2-26.9-1.9-39.6c3-25.2,7.3-43.9,0.1-48C44.8-3,27.8,7.3,12.2,36.3C4.8,50.7-1.6,71.6,0.4,95.7
		C2,119.9,12.7,143,20.7,161.1z"/>
	<path class="st0" d="M214.3,161.1c8.2,18.5,11.8,31.5,12,45.6c0.2,14-3.1,28.5-6.4,41.2c-7,25.4-12.5,43.8-5.7,48.4
		c6.2,4.4,23.4-4.9,42.3-30.5c9.1-12.9,18.8-30.5,22.6-54.3c4.4-23.7-2.1-52.3-12-73.4c-9.7-21.6-17.5-36.3-20.6-49.9
		c-3.4-13.5-3.2-26.9-1.9-39.6c3-25.2,7.3-43.9,0.1-48c-6.4-3.7-23.3,6.6-38.9,35.5c-7.4,14.4-13.8,35.3-11.8,59.4
		C195.6,119.9,206.3,143,214.3,161.1z"/>
	<path class="st0" d="M407.8,161.1c8.2,18.5,11.8,31.5,12,45.6c0.2,14-3.1,28.5-6.4,41.2c-7,25.4-12.4,43.8-5.7,48.4
		c6.2,4.4,23.4-4.9,42.3-30.5c9-12.9,18.8-30.5,22.6-54.3c4.3-23.7-2.1-52.3-12-73.4c-9.7-21.6-17.5-36.3-20.6-49.9
		c-3.4-13.5-3.3-26.9-1.9-39.6c3-25.2,7.3-43.9,0.1-48c-6.4-3.7-23.3,6.6-38.9,35.5c-7.4,14.4-13.8,35.3-11.9,59.4
		C389.1,119.9,399.9,143,407.8,161.1z"/>
</g>
</svg>
