<?xml version="1.0" encoding="utf-8"?>
<!-- Generator: Adobe Illustrator 22.1.0, SVG Export Plug-In . SVG Version: 6.00 Build 0)  -->
<svg version="1.1" id="レイヤー_1" xmlns="http://www.w3.org/2000/svg" xmlns:xlink="http://www.w3.org/1999/xlink" x="0px"
	 y="0px" viewBox="0 0 175 78" style="enable-background:new 0 0 175 78;" xml:space="preserve">
<style type="text/css">
	.st0{fill:#FFFFFF;}
</style>
<g>
	<path class="st0" d="M59,42.5c-0.6-0.2-0.6-0.2-0.6-0.7v-10L54.8,32c-0.2,0-0.8,0-0.8,0.5c0,0.3,0.3,0.4,0.6,0.4
		c0.4,0.1,0.5,0.1,0.5,1.1v7.8c0,0.4,0,0.5-0.6,0.7c-0.2,0-0.4,0.2-0.4,0.4c0,0.5,0.6,0.5,0.7,0.5h3.9c0.1,0,0.7,0,0.7-0.5
		C59.4,42.7,59.2,42.5,59,42.5z"/>
	<path class="st0" d="M64.8,31.6v0.9c0.8,0.3,0.9,0.8,0.9,1.5v7.3c0,0.7-0.1,1.2-0.9,1.5v0.9c2.3-0.3,4.4-2,4.4-6
		C69.2,33.6,67,31.9,64.8,31.6z"/>
	<path class="st0" d="M59.7,37.6c0,4,2.1,5.7,4.4,6v-0.9c-0.8-0.3-0.9-0.8-0.9-1.5V34c0-0.7,0.1-1.2,0.9-1.5v-0.9
		C61.8,31.9,59.7,33.6,59.7,37.6z"/>
	<path class="st0" d="M74.3,42.5c-0.6-0.2-0.6-0.2-0.6-0.7v-10L70.1,32c-0.2,0-0.8,0-0.8,0.5c0,0.3,0.3,0.4,0.6,0.4
		c0.4,0.1,0.5,0.1,0.5,1.1v7.8c0,0.4,0,0.5-0.6,0.7c-0.2,0-0.4,0.2-0.4,0.4c0,0.5,0.6,0.5,0.7,0.5h3.9c0.1,0,0.7,0,0.7-0.5
		C74.7,42.7,74.5,42.5,74.3,42.5z"/>
	<path class="st0" d="M81.6,33.8c0.7-0.6,1.3-1.3,1.5-2.2c-0.8,0.3-2.5,0.4-3.6,0.3l-3.2-0.3L76,34.5l2.4,0.2
		C79.6,34.7,80.6,34.6,81.6,33.8z"/>
	<path class="st0" d="M75.8,37.7c0,0.3,0.2,0.4,0.5,0.4c0.2,0,0.4-0.1,0.6-0.2c0.5-0.3,1-0.5,1.5-0.6v-1.2c-0.7,0.1-1.3,0.5-1.7,1
		l0.2-1.8L76,35.1L75.8,37.7z"/>
	<path class="st0" d="M83.5,39.8c0-2.6-2-3.9-4.3-3.8v1.3c0.8,0.2,0.9,1.1,0.9,1.6v2.2c0,0.6-0.1,1.4-0.9,1.6v0.9
		C81.5,43.7,83.5,42.4,83.5,39.8z"/>
	<path class="st0" d="M78.5,40.8c0-0.8-0.7-1.5-1.5-1.5c-1,0-1.7,0.8-1.7,1.7c0,1.6,1.8,2.5,3.2,2.6v-0.9c-0.2,0-0.8-0.2-0.8-0.4
		C77.6,42.1,78.4,41.8,78.5,40.8z"/>
	<path class="st0" d="M87.3,42.4c-0.2,0.1-0.3,0.2-0.3,0.4c0,0.4,0.4,0.5,0.5,0.5h4.1V31.9h-4.1c-0.1,0-0.5,0-0.5,0.5
		c0,0.2,0.1,0.3,0.3,0.4c0.5,0.2,0.5,0.3,0.5,0.8v8C87.8,42.2,87.8,42.3,87.3,42.4z"/>
	<path class="st0" d="M92.2,42.4v0.9h0.5c1.1,0,2,0,3-0.5c1-0.5,1.4-1.4,1.4-2.5c0-1.9-1.3-2.6-3-2.9v0c1.5-0.2,2.9-1,2.9-2.7
		c0-1.1-0.5-1.9-1.5-2.3c-0.9-0.4-1.9-0.4-2.8-0.4h-0.5v0.9c0.9,0.1,1.1,0.7,1.1,1.3v1.5c0,0.6,0,1.2-1.1,1.3v0.9
		c1,0.1,1.1,0.7,1.1,1.4v2C93.4,41.8,93.3,42.4,92.2,42.4z"/>
	<path class="st0" d="M103.3,42.5c-0.2,0.1-0.3,0.2-0.3,0.4c0,0.4,0.4,0.4,0.7,0.4h3.8c0.3,0,0.8,0,0.8-0.4c0-0.3-0.2-0.4-0.4-0.5
		c-0.4-0.2-0.4-0.5-0.5-0.9l-2.3-9.6h-3.4l-0.2,0.8l1.5,6.7h-1.9l-0.2,0.9h2.2l0.3,1.2C103.7,42.1,103.7,42.2,103.3,42.5z"/>
	<path class="st0" d="M101.2,34.1l-1.8,6.7c-0.3,1.1-0.7,1.4-1,1.6c-0.3,0.2-0.6,0.2-0.6,0.5c0,0.4,0.5,0.5,0.9,0.5h1.8
		c0.3,0,0.8,0,0.8-0.4c0-0.3-0.2-0.4-0.5-0.5c-0.5-0.2-0.7-0.5-0.5-1.4l1.4-5.2L101.2,34.1L101.2,34.1z"/>
	<path class="st0" d="M109.1,42.8c0,0.1,0,0.6,0.5,0.6c0.4,0,0.3-0.5,0.8-0.5c0.5,0,0.8,0.5,2.2,0.6v-0.9c-1.3-0.3-2.2-1.8-2.4-3
		c0-0.3-0.3-0.5-0.6-0.5c-0.4,0-0.5,0.4-0.5,0.7V42.8z"/>
	<path class="st0" d="M113,32.6v-0.9c-2.2,0.1-3.9,1.5-3.9,3.8c0,2.4,1.8,3.3,3.7,4.1c0.7,0.3,1.9,0.7,1.8,1.7
		c0,0.8-0.7,1.2-1.4,1.4v0.9c2.2,0,4.2-1.6,4.2-3.9c0-1.4-0.6-2.8-3.3-3.9c-1.8-0.7-2.2-1.2-2.2-1.9C111.9,33.2,112.4,32.8,113,32.6
		z"/>
	<path class="st0" d="M116,35.1c0,0.3,0.2,0.6,0.5,0.6c0.4,0,0.5-0.4,0.5-0.7v-2.6c0-0.1,0-0.6-0.4-0.6c-0.4,0-0.4,0.5-0.8,0.5
		c-0.2,0-1.2-0.6-2.1-0.6v0.9C114.9,32.9,115.8,34,116,35.1z"/>
	<path class="st0" d="M123.9,43.3h3.5v-3c0-0.1,0-0.5-0.4-0.5c-0.3,0-0.4,0.2-0.5,0.5c-0.4,1.2-1.4,2.1-2.6,2.2V43.3z"/>
	<path class="st0" d="M123.9,38c0.6,0.2,0.9,0.8,1.1,1.3c0.1,0.3,0.2,0.5,0.5,0.5c0.5,0,0.4-0.5,0.4-0.7v-3.3c0-0.1,0.1-0.7-0.4-0.7
		c-0.3,0-0.4,0.2-0.5,0.5c-0.1,0.6-0.4,1.2-1.1,1.3V38z"/>
	<path class="st0" d="M126.4,35c0.1,0.2,0.2,0.4,0.4,0.4c0.5,0,0.5-0.3,0.5-0.4v-3.1h-3.4v0.9C125.2,33,126,33.8,126.4,35z"/>
	<path class="st0" d="M119,42.4c-0.2,0.1-0.3,0.2-0.3,0.4c0,0.4,0.5,0.5,0.6,0.5h4V31.9h-4c-0.1,0-0.6,0-0.6,0.5
		c0,0.2,0.1,0.3,0.3,0.4c0.5,0.2,0.5,0.3,0.5,0.8v8C119.5,42.2,119.5,42.3,119,42.4z"/>
	<path class="st0" d="M139.8,36.3c0.5,0,0.5-0.5,0.5-0.5v-3.5c0-0.1,0-0.5-0.5-0.5c-0.2,0-0.3,0.1-0.4,0.3c-0.1,0.2-0.2,0.3-0.4,0.3
		c-0.4,0-1.6-0.6-2.1-0.6v0.9c1.4,0.4,2.1,2,2.4,3.2C139.3,36.1,139.5,36.3,139.8,36.3z"/>
	<path class="st0" d="M136.8,43.5c1.6,0.1,3.4-1.8,3.4-3c0-0.3-0.2-0.5-0.5-0.5c-0.3,0-0.4,0.2-0.5,0.5c-0.3,1.1-1.3,1.9-2.5,2.2
		V43.5z"/>
	<path class="st0" d="M136.2,32.6v-0.9c-2.9,0.1-4.9,2.6-4.9,6.1c0,3.1,1.6,5.6,4.9,5.7v-0.9c-0.7-0.2-1-0.8-1-1.4V34
		C135.2,33.4,135.4,32.8,136.2,32.6z"/>
	<path class="st0" d="M150.9,42.4c-0.4-0.2-0.4-0.5-0.5-0.9l-2.3-9.6h-3.3l-0.2,0.8l1.5,6.7h-1.8l-0.2,0.9h2.2l0.3,1.2
		c0.1,0.6,0.1,0.7-0.3,0.9c-0.2,0.1-0.3,0.2-0.3,0.4c0,0.4,0.4,0.4,0.7,0.4h3.8c0.3,0,0.8,0,0.8-0.4
		C151.3,42.6,151.1,42.5,150.9,42.4z"/>
	<path class="st0" d="M144.6,35.8l-0.4-1.7h0l-1.8,6.7c-0.3,1.1-0.7,1.4-1,1.6c-0.3,0.2-0.6,0.2-0.6,0.5c0,0.4,0.5,0.5,0.8,0.5h1.7
		c0.3,0,0.8,0,0.8-0.4c0-0.3-0.2-0.4-0.5-0.5c-0.5-0.2-0.7-0.5-0.5-1.4L144.6,35.8z"/>
	<path class="st0" d="M158.9,34.1L158.9,34.1l-0.7,2.5h0l-1.6-4.7h-3.8c-0.2,0-0.6,0-0.6,0.5c0,0.4,0.4,0.4,0.6,0.4
		c0.3,0,0.3,0.2,0.5,0.4c0.1,0.2,0.2,0.4,0.3,0.7l3.2,9.4h0.4l1.9-6.4V34.1z"/>
	<path class="st0" d="M154.2,40.9v-2.6l-0.8-2.5h0v5.1c-0.2,1.9-1.2,1.3-1.2,2c0,0.5,0.6,0.4,0.8,0.4h1.7c0.2,0,0.8,0,0.8-0.4
		C155.4,42.2,154.4,42.8,154.2,40.9z"/>
	<path class="st0" d="M163.8,32.8c0.2-0.1,0.3-0.2,0.3-0.4c0-0.4-0.5-0.5-0.6-0.5h-4v9.6c0,0.6,0,0.7-0.5,0.8
		c-0.2,0.1-0.3,0.2-0.3,0.4c0,0.4,0.5,0.5,0.6,0.5h4.3c0.1,0,0.6,0,0.6-0.5c0-0.2-0.1-0.3-0.3-0.4c-0.5-0.2-0.5-0.3-0.5-0.8v-7.9
		C163.3,33.1,163.2,33,163.8,32.8z"/>
	<path class="st0" d="M173.4,32.5c-0.7-0.4-1.6-0.6-3-0.6v0.9c0.8,0.1,0.9,0.7,0.9,1.4v2.3c0,0.7,0,1.4-0.9,1.5V39
		c1.4,0,2.3-0.1,3-0.6c1.1-0.7,1.6-1.7,1.6-2.9S174.6,33.2,173.4,32.5z"/>
	<path class="st0" d="M170.3,42.4c-0.5-0.2-0.5-0.3-0.5-0.8V32h-4c-0.1,0-0.6,0-0.6,0.5c0,0.2,0.1,0.4,0.3,0.4
		c0.5,0.2,0.5,0.3,0.5,0.8v7.9c0,0.6,0,0.7-0.5,0.8c-0.2,0.1-0.3,0.2-0.3,0.4c0,0.4,0.5,0.5,0.6,0.5h4.3c0.1,0,0.6,0,0.6-0.5
		C170.6,42.6,170.5,42.5,170.3,42.4z"/>
	<path class="st0" d="M103.8,52.4c0,0-0.1,0-0.1,0c-0.1,0-0.1,0.1-0.2,0.1c0,0-0.1,0.1-0.1,0.1c0,0,0,0.1-0.1,0.1l-0.1,0.1
		c-0.1,0.1-0.1,0.2-0.2,0.2c0,0.1-0.1,0.1-0.1,0.2c0,0-0.1,0.1-0.1,0.1c0,0-0.1,0-0.2,0c-0.3,0-0.3-0.1-0.4-0.2
		c-0.1-0.2-0.1-0.4-0.1-0.6c0-0.2,0-0.4,0.1-0.6c0-0.2,0.1-0.4,0.1-0.6c0,0,0,0,0,0c0-0.1,0-0.3-0.1-0.4c-0.1-0.1-0.2-0.1-0.2-0.1
		c-0.1,0-0.1,0-0.2,0c-0.1,0.1-0.3,0.1-0.4,0.2c-0.1,0.1-0.2,0.2-0.3,0.3c-0.2,0.2-0.3,0.3-0.5,0.5c-0.1,0.1-0.1,0.2-0.2,0.2
		c0,0,0,0,0,0c0-0.2,0.1-0.4,0.2-0.6c0.1-0.3,0.3-0.6,0.4-0.8c0.1-0.3,0.3-0.6,0.4-0.9c0.1-0.3,0.3-0.6,0.4-0.9
		c0.1-0.3,0.2-0.7,0.3-1c0-0.1,0-0.3,0-0.4c0-0.2,0-0.3-0.1-0.4c-0.1-0.2-0.3-0.3-0.6-0.4c-0.2,0-0.4,0-0.5,0.2
		c-0.1,0.1-0.2,0.2-0.3,0.3c-0.1,0.1-0.1,0.2-0.2,0.3c-0.1,0.2-0.2,0.5-0.3,0.8c-0.1,0.3-0.1,0.5-0.2,0.8L98.6,49v0
		c0-0.1,0-0.1,0-0.2c0,0,0-0.1,0-0.1c0,0,0,0,0,0c0-0.1,0-0.1,0-0.2c0-0.1-0.1-0.2-0.1-0.2c-0.1,0-0.1-0.1-0.2-0.1c0,0-0.1,0-0.1,0
		c0,0-0.1,0-0.1,0c-0.1,0-0.2,0.1-0.2,0.1c0,0-0.1,0.1-0.1,0.2c0,0,0,0.1,0,0.1l-0.1,0.3L96,48.9h-0.3c-0.2,0-0.3,0.1-0.4,0.2
		c0,0.1-0.1,0.2,0,0.3c0,0,0,0,0,0.1c0,0.1,0.1,0.2,0.1,0.2c0.1,0.1,0.2,0.1,0.3,0.1c0.1,0,0.1,0,0.2,0c0.1,0,0.1,0,0.2,0
		c0.2,0,0.4,0,0.6,0h0.6l0.3,0c0,0,0,0,0,0.1c0,0.1,0,0.2,0,0.3c0,0.3-0.1,0.5-0.1,0.8c0,0.2-0.1,0.5-0.1,0.7c0,0.2,0,0.4,0,0.6
		c0,0.1,0,0.2,0,0.3c0,0,0,0,0,0c0,0,0,0,0,0c0,0,0,0.1,0,0.1c0,0-0.1,0.1-0.1,0.1c-0.1,0.1-0.2,0.2-0.3,0.3
		c-0.1,0.1-0.2,0.1-0.3,0.1c-0.1,0-0.1,0-0.2,0c0,0-0.1-0.1-0.1-0.1c-0.1-0.1-0.1-0.3-0.1-0.5c0-0.2,0-0.4,0-0.6c0-0.1,0-0.2,0-0.3
		c0-0.1,0-0.2,0-0.2c0-0.1,0-0.2,0-0.2c0-0.1-0.1-0.2-0.2-0.3c0,0,0,0-0.1,0c-0.1,0-0.1-0.1-0.2-0.1c-0.1,0-0.1,0-0.2,0.1
		c-0.1,0.1-0.1,0.1-0.1,0.2l0,0.1c0,0.1,0,0.1-0.1,0.2c0,0.1,0,0.2-0.1,0.2c-0.1,0.2-0.1,0.4-0.2,0.5c-0.1,0.2-0.1,0.3-0.2,0.5
		c-0.1,0.1-0.1,0.2-0.2,0.3c-0.1,0.1-0.1,0.1-0.2,0.1c0,0,0,0,0,0c0,0,0-0.1-0.1-0.1c0-0.1,0-0.1,0-0.2c0-0.2,0-0.3,0-0.5
		c0,0,0,0,0-0.1c0,0,0,0,0-0.1c0.1-0.1,0-0.2,0-0.2c0,0,0,0,0-0.1c0,0,0-0.1,0-0.1c0-0.1,0-0.2,0.1-0.2c0-0.1,0-0.1,0.1-0.2
		c0-0.1,0-0.1,0.1-0.2c0-0.1,0-0.2-0.1-0.3c0,0,0,0,0,0c-0.1,0-0.1-0.1-0.2-0.1c-0.1,0-0.2,0-0.3,0.1C94,50.9,94,51,94,51.1
		c0,0,0,0.1-0.1,0.1c0,0.1-0.1,0.2-0.1,0.3c0,0.1,0,0.2-0.1,0.3c0,0.1,0,0.2,0,0.3c0,0-0.1,0-0.1,0c-0.1,0-0.2,0-0.3,0
		c0,0,0-0.1,0-0.1c0-0.1,0-0.2,0-0.3c0-0.1,0-0.3-0.1-0.4c0-0.2-0.1-0.3-0.3-0.4c-0.1-0.1-0.2-0.2-0.3-0.2c-0.1-0.1-0.2-0.1-0.4-0.1
		c0,0,0,0-0.1,0c-0.2,0-0.4,0.1-0.6,0.3c-0.1,0.1-0.1,0.2-0.1,0.3c-0.1,0-0.1,0.1-0.2,0.1c-0.1,0.1-0.1,0.1-0.2,0.2
		c-0.1,0.2-0.2,0.3-0.3,0.5c-0.1,0.1-0.1,0.3-0.1,0.4c0-0.1-0.1-0.2-0.2-0.2c-0.1-0.1-0.3-0.2-0.4-0.3c-0.2-0.1-0.4-0.2-0.6-0.3
		c-0.2-0.1-0.4-0.2-0.6-0.3c-0.7-0.3-1.3-0.5-2-0.7c-0.7-0.2-1.3-0.5-2-0.7c-0.2-0.1-0.5-0.2-0.7-0.3c-0.2-0.1-0.4-0.2-0.6-0.4
		c-0.1-0.1-0.2-0.1-0.2-0.2c-0.1-0.1-0.1-0.1-0.2-0.2c0,0-0.1-0.1-0.1-0.2c0,0,0-0.1,0-0.1c0-0.1,0-0.2,0.1-0.3
		c0.1-0.1,0.2-0.2,0.3-0.3c0.2-0.1,0.4-0.3,0.6-0.4c0.2-0.1,0.4-0.2,0.7-0.3c1.2-0.4,2.4-0.6,3.7-0.6c0.3,0,0.6,0,0.8,0.1
		c0.3,0,0.5,0.1,0.8,0.2c0.2,0.1,0.4,0.2,0.5,0.3c0,0,0.1,0.1,0.1,0.1c0,0,0,0.1,0,0.1c0,0,0,0,0,0.1c0,0,0,0.1-0.1,0.1
		c0,0.1-0.1,0.1-0.2,0.2c-0.1,0.1-0.1,0.1-0.2,0.1c-0.1,0.1-0.2,0.1-0.3,0.1c-0.1,0-0.2,0.1-0.3,0.1c-0.1,0-0.1,0-0.2,0
		c-0.1,0-0.2,0-0.2,0c0,0,0,0,0,0C89,48.1,89,48.2,89,48.3c0,0.1,0,0.2,0,0.2c0,0,0,0,0,0c0.1,0.2,0.3,0.3,0.5,0.3
		c0.1,0,0.2,0,0.3,0c0.1,0,0.2,0,0.3-0.1c0.2-0.1,0.4-0.2,0.7-0.3c0.2-0.1,0.4-0.3,0.6-0.5c0.1-0.1,0.2-0.2,0.2-0.3
		c0.1-0.1,0.1-0.3,0.1-0.4c0-0.1,0-0.2-0.1-0.4c0-0.1-0.1-0.2-0.1-0.3c-0.1-0.1-0.2-0.3-0.3-0.4c-0.1-0.1-0.3-0.2-0.4-0.3
		c-0.3-0.2-0.7-0.3-1.1-0.4c-0.4-0.1-0.8-0.1-1.2-0.1c-0.7,0-1.4,0.1-2.1,0.2c-0.7,0.1-1.4,0.3-2.1,0.6c-0.3,0.1-0.5,0.2-0.8,0.4
		c-0.3,0.2-0.5,0.3-0.7,0.6c-0.1,0.1-0.2,0.3-0.3,0.5c-0.1,0.2-0.1,0.4-0.1,0.6c0,0.2,0.1,0.4,0.2,0.6c0.1,0.2,0.2,0.3,0.4,0.5
		c0.2,0.2,0.5,0.4,0.7,0.5c0.2,0.1,0.5,0.3,0.7,0.4c0.7,0.3,1.3,0.5,2,0.8c0.7,0.2,1.3,0.4,2,0.7c0.2,0.1,0.5,0.2,0.7,0.3
		c0.2,0.1,0.4,0.2,0.7,0.3c0.1,0,0.1,0.1,0.2,0.1c0.1,0,0.1,0.1,0.2,0.1c0,0,0.1,0.1,0.1,0.1c0,0,0,0,0,0.1c0,0-0.1,0.1-0.1,0.1
		c-0.1,0.1-0.3,0.2-0.5,0.3c-0.5,0.2-1.1,0.3-1.7,0.3c-0.7,0-1.3-0.1-1.9-0.3c-0.6-0.2-1.2-0.5-1.8-0.8c0,0-0.1,0-0.1,0
		c0,0-0.1-0.1-0.1-0.1c0,0,0,0-0.1,0c0,0,0,0,0,0l-0.1,0c0,0-0.1,0-0.1,0c-0.2,0-0.2,0.1-0.3,0.2v0c0,0.1,0,0.2,0.1,0.3
		c0,0,0,0.1,0.1,0.1c0.1,0.1,0.2,0.2,0.4,0.3c0.2,0.1,0.3,0.2,0.5,0.3c0.2,0.1,0.3,0.2,0.5,0.2c0.5,0.2,1,0.4,1.5,0.5
		c0.5,0.1,1.1,0.2,1.6,0.2h0c0,0,0.1,0,0.1,0c0.3,0,0.6,0,1-0.1c0.4-0.1,0.7-0.2,1-0.3c0.1-0.1,0.3-0.1,0.4-0.2
		c0.1-0.1,0.3-0.2,0.4-0.3c0.1-0.1,0.1-0.2,0.2-0.3c0,0,0,0.1,0,0.1c0.1,0.2,0.1,0.3,0.3,0.5c0.1,0.1,0.2,0.2,0.3,0.2
		c0.1,0,0.3,0.1,0.4,0.1c0.2,0,0.4-0.1,0.6-0.2c0.2-0.1,0.3-0.2,0.4-0.4c0.1-0.1,0.2-0.3,0.3-0.4c0,0,0.1,0,0.1,0
		c0.2,0,0.3,0,0.5-0.1c0,0.1,0,0.2,0,0.3c0,0.1,0.1,0.3,0.1,0.4c0.1,0.2,0.2,0.3,0.4,0.4c0.1,0.1,0.2,0.1,0.4,0.1c0,0,0.1,0,0.1,0
		c0.2,0,0.4-0.1,0.5-0.2c0.1-0.1,0.2-0.2,0.3-0.3c0.1-0.1,0.1-0.2,0.2-0.3c0,0.1,0.1,0.2,0.1,0.3c0,0,0,0,0,0
		c0.1,0.1,0.1,0.1,0.2,0.2c0.1,0.1,0.1,0.1,0.2,0.2c0.1,0.1,0.2,0.1,0.4,0.1c0,0,0.1,0,0.1,0c0.2,0,0.4-0.1,0.6-0.2
		c0.1-0.1,0.2-0.2,0.3-0.3c0.1,0.1,0.1,0.3,0.2,0.4c0.1,0.1,0.2,0.2,0.4,0.2c0.1,0,0.3,0.1,0.4,0.1c0.2,0,0.3,0,0.5-0.1
		c0.1-0.1,0.3-0.2,0.4-0.3c0.1-0.1,0.2-0.1,0.2-0.2c0,0,0,0.1,0,0.1v0.1c0,0.1,0,0.1,0,0.2c0,0,0,0,0,0c0,0,0,0,0,0
		c0,0.1,0.1,0.2,0.2,0.2c0,0,0.1,0,0.1,0h0c0.1,0,0.2,0,0.2-0.1c0.1-0.1,0.1-0.1,0.1-0.2c0-0.1,0.1-0.1,0.1-0.2
		c0-0.1,0.1-0.2,0.1-0.3c0.1-0.1,0.1-0.2,0.1-0.3c0.1-0.2,0.2-0.3,0.3-0.5c0.1-0.1,0.1-0.1,0.2-0.2c0,0.1,0,0.2,0,0.2
		c0,0.4,0.1,0.7,0.3,1c0.2,0.3,0.5,0.4,0.9,0.4h0c0.2,0,0.4,0,0.5-0.1c0.1-0.1,0.3-0.2,0.4-0.3c0.1-0.1,0.2-0.2,0.3-0.4
		c0.1-0.1,0.1-0.2,0.2-0.4c0,0,0-0.1,0-0.1c0-0.1,0-0.2-0.1-0.3C103.9,52.5,103.9,52.4,103.8,52.4z M100.8,49.6
		C100.8,49.6,100.8,49.5,100.8,49.6C100.8,49.5,100.8,49.5,100.8,49.6c0.1-0.1,0.1-0.2,0.1-0.3c0-0.1,0.1-0.3,0.1-0.4
		c0-0.2,0.1-0.4,0.2-0.5c0.1-0.2,0.1-0.4,0.2-0.5c0,0,0,0,0,0c0,0,0-0.1,0.1-0.1c0,0,0.1-0.1,0.1-0.1c0,0,0,0,0-0.1c0,0,0,0.1,0,0.1
		c0,0.1,0,0.1,0,0.2c0,0.1,0,0.3-0.1,0.4c0,0.1-0.1,0.3-0.1,0.5c-0.2,0.4-0.3,0.9-0.5,1.3c0,0,0,0,0,0
		C100.7,49.8,100.7,49.7,100.8,49.6z M92.3,52.7c-0.1,0.1-0.1,0.2-0.2,0.3c-0.1,0.1-0.1,0.1-0.2,0.1c0,0-0.1,0-0.1,0
		c0,0-0.1,0-0.1-0.1c0-0.1-0.1-0.1-0.1-0.2c0-0.1,0-0.2,0-0.2c0-0.1,0-0.2,0.1-0.3c0-0.1,0.1-0.2,0.1-0.2c0,0.1,0.1,0.1,0.1,0.2
		c0.1,0.1,0.2,0.3,0.3,0.4c0.1,0,0.1,0.1,0.2,0.1C92.3,52.6,92.3,52.7,92.3,52.7z M92.6,51.9C92.6,51.9,92.6,52,92.6,51.9
		c-0.1,0-0.1-0.1-0.2-0.2l-0.1-0.3c0-0.1,0-0.2,0-0.2c0,0,0,0,0,0c0,0,0,0,0,0c0.1,0,0.2,0.1,0.2,0.1c0,0,0,0,0,0
		c0,0,0.1,0.1,0.1,0.1c0,0.1,0,0.2,0,0.3C92.6,51.8,92.6,51.9,92.6,51.9z M99.9,50.2c-0.1,0.4-0.1,0.7-0.1,1.1c0,0.3-0.1,0.6-0.1,1
		c0,0,0,0.1-0.1,0.1c0,0-0.1,0.1-0.1,0.1c-0.1,0.1-0.2,0.2-0.3,0.3c-0.1,0.1-0.2,0.2-0.3,0.3c-0.1,0-0.1,0.1-0.2,0.1
		c-0.1,0.1-0.3,0.1-0.4,0c-0.1,0-0.1-0.1-0.1-0.1c-0.1-0.1-0.1-0.2-0.1-0.4c0-0.2,0-0.3,0-0.5c0-0.4,0-0.8,0.1-1.2
		c0.1-0.4,0.1-0.8,0.2-1.2l0-0.2c0.5,0,1,0,1.5,0C100,49.9,99.9,50,99.9,50.2z"/>
	<path class="st0" d="M112.5,53.9l-0.1-0.2c-0.1-0.1-0.1-0.2-0.1-0.3c0-0.1-0.1-0.2-0.1-0.3c-0.1-0.3-0.3-0.7-0.4-1
		c-0.1-0.3-0.1-0.5-0.2-0.8c0,0,0.1,0,0.1,0c0.1,0,0.1,0,0.2,0c0.1,0,0.2-0.1,0.2-0.2c0-0.1,0-0.1,0-0.3c0-0.1,0-0.1,0-0.2
		c0-0.1-0.1-0.2-0.1-0.2c-0.1-0.1-0.2-0.1-0.3-0.1c-0.1,0-0.1,0-0.2,0c-0.1,0-0.1,0-0.2,0c0,0-0.1,0-0.1,0c-0.1-0.5-0.2-1-0.2-1.4
		c-0.1-0.5-0.2-1-0.2-1.6c-0.1-0.3-0.1-0.7-0.1-1.1c0-0.1,0-0.1,0-0.2c0-0.1,0-0.1,0-0.2c0,0,0,0,0,0c0,0,0-0.1,0-0.1
		c0-0.1-0.1-0.1-0.2-0.2c-0.1-0.1-0.2,0-0.3,0l0,0c-0.1,0-0.3,0-0.4,0.1c-0.1,0.1-0.1,0.1-0.2,0.2c0,0.1-0.1,0.1-0.1,0.2
		c-0.1,0.3-0.3,0.5-0.4,0.8l-0.6,1.2c-0.2,0.4-0.4,0.8-0.6,1.2c-0.1,0.2-0.3,0.5-0.4,0.7c-0.1,0.2-0.2,0.4-0.4,0.6
		c-0.3,0-0.6,0.1-0.9,0.2c-0.3,0.1-0.6,0.1-0.9,0.2c0,0,0,0,0,0c-0.1,0-0.2,0.1-0.2,0.3c0,0.1,0,0.2,0.1,0.2c0,0,0.1,0.1,0.1,0.1
		c0.1,0.1,0.2,0.1,0.2,0c0,0,0,0,0.1,0l0.2,0c0.2,0,0.4-0.1,0.6-0.1c0.1,0,0.2,0,0.2,0c-0.2,0.3-0.4,0.6-0.6,0.9
		c-0.3,0.4-0.6,0.8-0.9,1.2c0,0-0.1,0.1-0.1,0.1c0,0.1-0.1,0.2,0,0.2c0,0.1,0.1,0.2,0.2,0.2c0.1,0,0.1,0,0.2,0c0,0,0,0,0,0
		c0.1,0,0.1-0.1,0.2-0.2c0,0,0-0.1,0-0.1c0.2-0.2,0.3-0.3,0.4-0.5c0.1-0.2,0.3-0.4,0.4-0.5c0.2-0.2,0.4-0.5,0.5-0.7
		c0.2-0.2,0.3-0.5,0.5-0.7c0.4,0,0.9-0.1,1.3-0.1c0.5,0,0.9,0,1.4,0c0.1,0,0.2,0,0.3,0c0,0,0.1,0,0.1,0c0.1,0.3,0.2,0.6,0.3,0.9
		c0.1,0.3,0.2,0.7,0.4,1c0.1,0.2,0.2,0.4,0.3,0.6c0.1,0.2,0.2,0.4,0.4,0.6c0,0,0,0,0,0c0,0,0.1,0,0.1,0.1c0.1,0,0.1,0.1,0.2,0.1
		c0,0,0.1,0,0.1,0c0.1,0,0.1-0.1,0.1-0.2c0-0.1,0-0.1,0-0.2C112.6,54,112.6,53.9,112.5,53.9z M110.3,50.2c-0.4,0-0.9,0-1.3,0.1
		c-0.3,0-0.6,0.1-0.8,0.1c0-0.1,0.1-0.1,0.1-0.2c0.1-0.2,0.2-0.3,0.3-0.5c0.2-0.4,0.5-0.8,0.7-1.2c0.2-0.4,0.4-0.8,0.6-1.2l0,0
		c0,0.1,0,0.2,0,0.3c0.1,0.5,0.2,1,0.2,1.5c0.1,0.4,0.2,0.8,0.3,1.2C110.4,50.2,110.4,50.2,110.3,50.2z"/>
	<path class="st0" d="M121.1,49.9c-0.1,0-0.2,0-0.4,0.2c-0.1,0.1-0.1,0.2-0.1,0.4c0,0.2,0,0.3,0.1,0.4c0.1,0.2,0.3,0.2,0.4,0.2
		c0.1,0,0.2,0,0.4-0.2c0.1-0.1,0.1-0.3,0.1-0.4c0-0.1,0-0.3-0.1-0.4C121.4,50,121.2,49.9,121.1,49.9z"/>
	<path class="st0" d="M121.8,54.4c0,0-0.1-0.1-0.2-0.1c0,0,0,0,0,0c-0.1,0-0.2,0-0.3,0c0,0,0,0,0,0v-0.6c0-0.2,0-0.5,0-0.7
		c0-0.2,0-0.5,0.1-0.7c0-0.2,0.1-0.3,0.1-0.4c0,0,0,0,0,0c0,0,0-0.1,0-0.1c0-0.1,0-0.2,0-0.2c0-0.1-0.2-0.2-0.3-0.2
		c-0.2,0-0.3,0.1-0.3,0.2c-0.1,0.1-0.1,0.2-0.2,0.4c0,0.1-0.1,0.2-0.1,0.3c0,0.1,0,0.1,0,0.2c0,0.1-0.1,0.1-0.1,0.2
		c-0.1,0.1-0.2,0.2-0.3,0.3c-0.1,0.1-0.2,0.2-0.3,0.2c-0.1,0-0.2,0.1-0.2,0.1c0,0,0,0,0,0c-0.1,0-0.2,0-0.2-0.1c0,0-0.1-0.1-0.1-0.2
		c0-0.1,0-0.2,0-0.3c0-0.1,0-0.2,0-0.4c0,0,0,0,0,0c0,0,0,0,0,0c0-0.1,0-0.1,0-0.2c0-0.1,0-0.1-0.1-0.2c0,0-0.1-0.1-0.1-0.1
		c0,0,0,0,0,0c0.1,0,0.1,0,0.1-0.1c0,0,0,0,0,0c0.1-0.1,0.1-0.2,0.1-0.4c0-0.1,0-0.2-0.1-0.3c0,0,0,0,0,0c-0.1-0.1-0.2-0.2-0.4-0.3
		c-0.3-0.1-0.7-0.1-1,0.1c-0.2,0.1-0.3,0.2-0.4,0.3c-0.2,0.2-0.3,0.5-0.4,0.8c-0.1,0.2-0.1,0.5-0.2,0.7c0,0,0,0-0.1,0
		c0,0-0.1,0-0.1,0c0,0,0,0,0,0c0,0,0,0,0,0c-0.2,0-0.3-0.1-0.4-0.1c0,0-0.1-0.1-0.1-0.1c0,0,0-0.1,0-0.1c0-0.1,0-0.1,0.1-0.2
		c0-0.1,0.1-0.3,0.1-0.4c0-0.1,0-0.3,0-0.5c0-0.1,0-0.1,0-0.2c0-0.1-0.1-0.1-0.1-0.2c-0.1-0.1-0.2-0.1-0.3-0.1c-0.1,0-0.2,0-0.2,0.1
		c0,0,0,0,0,0c-0.1,0.1-0.1,0.1-0.1,0.2c0,0,0,0.1,0,0.1c0,0,0,0,0,0c0,0.1-0.1,0.2-0.1,0.3c0,0.1,0,0.2,0,0.3c0,0.1,0,0.3,0,0.4
		c0,0.1-0.1,0.2-0.1,0.3c0,0.1-0.1,0.2-0.2,0.4c0,0.1-0.1,0.1-0.1,0.2c0,0-0.1,0.1-0.1,0.1c0,0,0,0,0,0c0,0-0.1,0.1-0.1,0.1
		c-0.1,0-0.1,0-0.2-0.1c0-0.1-0.1-0.1-0.1-0.2c0-0.1,0-0.1,0-0.2c0.1-0.4,0.2-0.8,0.2-1.2c0-0.1-0.1-0.2-0.2-0.3c0,0-0.1,0-0.1,0
		c-0.1,0-0.1,0-0.2,0l-0.1,0c-0.1,0-0.1,0.1-0.1,0.2c0,0,0,0.1-0.1,0.2c0,0.1,0,0.2-0.1,0.2c0,0.1,0,0.1,0,0.2c0,0.1,0,0.2,0,0.3
		c0,0.1,0,0.2,0,0.2c-0.1,0.1-0.1,0.2-0.2,0.4c-0.1,0.1-0.1,0.1-0.2,0.2c-0.1,0-0.1,0.1-0.2,0c0,0,0,0-0.1,0c0,0,0,0,0,0
		c0,0,0-0.1-0.1-0.1c0-0.1,0-0.1,0-0.2c0-0.2,0-0.3,0-0.5c0-0.2,0-0.3,0.1-0.5c0-0.1,0-0.2,0.1-0.2c0-0.1,0-0.1,0-0.2
		c0-0.1,0-0.1,0-0.2c0-0.1,0-0.2-0.1-0.3c0,0-0.1-0.1-0.2-0.1c-0.1,0-0.2,0-0.3,0c-0.1,0.1-0.2,0.1-0.2,0.2c0,0,0,0.1,0,0.1
		c-0.1,0.2-0.1,0.4-0.1,0.5c0,0.2-0.1,0.5-0.1,0.8c0,0.3,0,0.5,0.1,0.8c0,0.1,0.1,0.2,0.1,0.2c0.1,0.1,0.1,0.2,0.2,0.2
		c0.1,0.1,0.3,0.2,0.5,0.2c0,0,0.1,0,0.1,0c0.1,0,0.1,0,0.2,0c0.1,0,0.2,0,0.2-0.1c0.2-0.1,0.3-0.2,0.4-0.3c0.1,0.1,0.2,0.2,0.3,0.3
		c0.1,0.1,0.3,0.1,0.4,0.1h0c0.2,0,0.4-0.1,0.6-0.2c0.2-0.1,0.3-0.3,0.4-0.4c0.1-0.1,0.1-0.2,0.2-0.3c0,0,0-0.1,0-0.1
		c0.1,0,0.1,0.1,0.2,0.1c0.2,0.1,0.3,0.1,0.5,0.1c0,0,0,0,0,0c0.1,0,0.2,0,0.3,0c0,0.2,0.1,0.3,0.2,0.5c0.1,0.1,0.2,0.2,0.3,0.2
		c0.1,0.1,0.2,0.1,0.4,0.1c0,0,0,0,0,0c0.2,0,0.4-0.1,0.5-0.2c0.1-0.1,0.2-0.2,0.3-0.4c0,0.1,0.1,0.1,0.2,0.2
		c0.1,0.1,0.2,0.2,0.4,0.2c0.4,0.1,0.8,0.1,1.1-0.2c0.1,0,0.1-0.1,0.2-0.1c0,0,0,0,0,0c0,0.2,0,0.4,0,0.6c0,0.1,0,0.3,0,0.4l0,0
		c-0.1,0-0.1,0-0.2,0.1c-0.7,0.3-1.2,0.6-1.7,1.1c-0.2,0.2-0.3,0.3-0.5,0.5c-0.2,0.2-0.2,0.5-0.3,0.7c0,0.2,0.1,0.4,0.2,0.6
		c0.1,0.2,0.2,0.4,0.4,0.5c0.1,0.1,0.2,0.2,0.4,0.2c0.1,0,0.2,0.1,0.3,0.1c0.1,0,0.1,0,0.2,0c0.2,0,0.4-0.1,0.5-0.1
		c0.2-0.1,0.3-0.2,0.5-0.3c0.3-0.2,0.5-0.5,0.7-0.9c0.1-0.2,0.2-0.5,0.2-0.8c0-0.2,0.1-0.5,0.1-0.7c0-0.2,0-0.5,0-0.7c0,0,0,0,0,0
		c0.1,0,0.1,0,0.2,0c0,0,0,0,0,0c0,0,0.1,0,0.1,0c0.1,0,0.2-0.1,0.2-0.2C121.9,54.5,121.8,54.4,121.8,54.4
		C121.8,54.4,121.8,54.4,121.8,54.4z M118.6,51.8c0,0.1-0.1,0.1-0.1,0.2c0,0,0,0.1,0,0.1c0,0.1,0,0.2,0,0.2v0.2
		c-0.1,0.2-0.2,0.3-0.3,0.5c-0.1,0.1-0.1,0.1-0.2,0.2c0,0-0.1,0-0.1,0c0,0,0,0,0,0c0,0,0-0.1-0.1-0.1c0-0.1,0-0.2-0.1-0.2
		c0-0.1,0-0.2,0-0.3c0,0,0-0.1,0-0.1c0-0.1,0-0.1,0-0.2c0-0.1,0-0.2,0.1-0.3c0.1-0.2,0.1-0.3,0.3-0.5c0.1-0.1,0.1-0.2,0.2-0.3
		c0.1-0.1,0.1-0.1,0.1-0.1l0,0c0,0,0.1,0,0.1,0c0,0.1,0,0.2,0.1,0.3c0,0,0.1,0.1,0.1,0.1C118.7,51.7,118.6,51.7,118.6,51.8z
		 M120.5,55.3c0,0.2,0,0.5,0,0.7c0,0.2-0.1,0.4-0.1,0.6c0,0.1-0.1,0.3-0.2,0.4c-0.1,0.1-0.2,0.2-0.2,0.3c-0.1,0.1-0.2,0.2-0.3,0.2
		c-0.1,0.1-0.2,0.1-0.4,0.1c0,0,0,0-0.1,0c0,0,0,0-0.1,0c-0.1,0-0.1,0-0.2-0.1c-0.1-0.1-0.2-0.1-0.2-0.2c-0.1-0.1-0.1-0.2-0.1-0.3
		c0-0.1,0-0.1,0-0.2c0.1-0.1,0.1-0.2,0.2-0.3c0.1-0.1,0.2-0.2,0.3-0.3c0.1-0.1,0.2-0.2,0.3-0.3c0.2-0.2,0.4-0.3,0.7-0.5
		C120.1,55.3,120.3,55.2,120.5,55.3C120.5,55.2,120.5,55.2,120.5,55.3z"/>
	<path class="st0" d="M122.2,49.9c-0.1,0-0.2,0-0.4,0.2c-0.1,0.1-0.1,0.2-0.1,0.4c0,0.2,0,0.3,0.1,0.4c0.1,0.2,0.3,0.2,0.4,0.2
		c0.1,0,0.2,0,0.4-0.2c0.1-0.1,0.1-0.2,0.1-0.4c0-0.1,0-0.3-0.1-0.4C122.4,50,122.3,49.9,122.2,49.9z"/>
	<path class="st0" d="M124,52.5c-0.1,0-0.1,0-0.2,0c-0.1,0-0.1,0.1-0.1,0.1c0,0,0,0,0,0c0,0,0,0.1-0.1,0.1c0,0,0,0.1-0.1,0.1
		c-0.1,0.1-0.2,0.2-0.4,0.3c-0.1,0.1-0.2,0.1-0.4,0.1c0,0,0,0,0,0c-0.1,0-0.1,0-0.1-0.1c0,0-0.1-0.1-0.1-0.1
		c-0.1-0.1-0.1-0.2-0.1-0.4c0-0.1,0-0.3,0-0.4c0-0.1,0-0.2,0-0.2c0-0.1,0-0.1,0-0.2c0,0,0-0.1,0-0.1c0-0.1,0-0.2,0-0.2c0,0,0,0,0,0
		c0-0.1-0.1-0.2-0.2-0.2c-0.1,0-0.1,0-0.2,0c0,0-0.1,0-0.1,0c0,0,0,0,0,0c-0.1,0-0.2,0-0.2,0.1c-0.1,0.1-0.1,0.1-0.1,0.2
		c0,0,0,0.1,0,0.1c0,0,0,0,0,0c-0.1,0.2-0.1,0.4-0.1,0.6c0,0.2,0,0.5,0.1,0.7c0.1,0.2,0.2,0.4,0.3,0.6c0.1,0.1,0.2,0.2,0.4,0.3
		c0.1,0.1,0.3,0.1,0.5,0.1c0.2,0,0.5-0.1,0.7-0.2c0.2-0.1,0.3-0.2,0.5-0.4c0.1-0.2,0.2-0.3,0.3-0.5c0,0,0-0.1,0-0.1
		c0-0.1,0-0.2-0.1-0.2C124.1,52.5,124,52.5,124,52.5z"/>
	<path class="st0" d="M133.9,49.6c0.1-0.3,0.1-0.6,0.1-1c0-0.2,0-0.4,0-0.6c0-0.2-0.1-0.4-0.1-0.6c-0.1-0.3-0.3-0.6-0.5-0.9
		c-0.3-0.3-0.6-0.5-1-0.7c-0.4-0.2-0.8-0.3-1.2-0.3l-0.1,0c-0.7,0-1.3,0.1-1.9,0.4c-0.6,0.3-1.2,0.6-1.8,1c-0.2,0.2-0.4,0.3-0.6,0.5
		c-0.2,0.2-0.3,0.4-0.5,0.6c-0.1,0.1-0.2,0.3-0.2,0.5c-0.1,0.2-0.1,0.3-0.1,0.5c0,0.2,0,0.3,0.1,0.5c0,0.2,0.1,0.3,0.2,0.5
		c0.2,0.3,0.4,0.5,0.7,0.7c0.2,0.1,0.4,0.2,0.6,0.3c0.2,0.1,0.4,0.1,0.7,0.1c0.3,0,0.6,0.1,1,0.1c0.3,0,0.6,0,1-0.1
		c0.2,0,0.3-0.1,0.5-0.1c0.2,0,0.3-0.1,0.5-0.2c0.1,0,0.2-0.1,0.4-0.2c0.2-0.1,0.3-0.2,0.3-0.3c0-0.1,0-0.2,0-0.3c0,0,0,0,0,0
		c0,0-0.1-0.1-0.2-0.1c0,0,0,0-0.1,0c-0.1,0-0.1,0-0.2,0c-0.1,0-0.2,0-0.2,0c-0.1,0-0.2,0.1-0.3,0.1c-0.1,0-0.2,0.1-0.3,0.1
		c-0.4,0.1-0.8,0.1-1.2,0.2c-0.2,0-0.4,0-0.6,0c-0.2,0-0.4,0-0.7-0.1c-0.1,0-0.2,0-0.4-0.1c-0.1,0-0.2-0.1-0.4-0.2
		c-0.1,0-0.2-0.1-0.2-0.2c-0.1-0.1-0.1-0.1-0.2-0.2c0-0.1-0.1-0.1-0.1-0.2c0-0.1,0-0.2,0-0.3c0-0.1,0-0.2,0.1-0.3
		c0.1-0.1,0.1-0.2,0.2-0.3c0.1-0.2,0.2-0.3,0.4-0.4c0.1-0.1,0.3-0.3,0.4-0.4c0.4-0.3,0.9-0.6,1.5-0.8c0.5-0.2,1-0.3,1.6-0.3
		c0.3,0,0.6,0.1,0.9,0.2c0.3,0.1,0.5,0.3,0.7,0.5c0.2,0.2,0.3,0.4,0.4,0.7c0.1,0.3,0.1,0.5,0.1,0.8c0,0.3,0,0.6-0.1,0.9
		c-0.1,0.3-0.2,0.6-0.3,0.8c-0.3,0.5-0.6,1-1,1.5c-0.4,0.5-0.9,0.8-1.4,1.1c-0.5,0.3-1.1,0.4-1.7,0.4c-0.3,0-0.6,0-0.9-0.1
		c-0.3-0.1-0.6-0.2-0.8-0.3c-0.1-0.1-0.3-0.2-0.4-0.3c-0.1-0.1-0.2-0.2-0.2-0.4c0,0,0-0.1,0-0.1c0-0.1,0.1-0.1,0.1-0.1c0,0,0,0,0,0
		l0-0.1c0,0,0-0.1,0.1-0.1c0.1-0.1,0-0.2,0-0.2c0,0-0.1-0.1-0.1-0.1c-0.1,0-0.1-0.1-0.3,0c-0.1,0-0.2,0.1-0.2,0.1
		c-0.1,0.1-0.2,0.2-0.2,0.3c0,0.1-0.1,0.2-0.1,0.4c0,0.2,0,0.4,0.1,0.6c0.1,0.1,0.2,0.3,0.3,0.4c0.1,0.1,0.2,0.2,0.3,0.3
		c0.3,0.2,0.7,0.4,1,0.5c0.4,0.1,0.8,0.2,1.1,0.2c0,0,0,0,0,0c0.4,0,0.8,0,1.1-0.1c0.4-0.1,0.7-0.2,1.1-0.4c0.6-0.3,1.1-0.8,1.6-1.3
		c0.5-0.5,0.8-1.1,1.1-1.7C133.7,50.2,133.8,49.9,133.9,49.6z"/>
	<path class="st0" d="M148.9,52.6c-0.1,0-0.2,0-0.3,0c0,0,0,0-0.1,0.1c-0.1,0-0.1,0.1-0.2,0.2c0,0-0.1,0.1-0.1,0.1
		c-0.1,0.1-0.2,0.2-0.3,0.2c-0.1,0.1-0.2,0.1-0.3,0.1c-0.1,0-0.1,0-0.2-0.1c0,0,0,0,0,0c-0.1-0.1-0.2-0.2-0.3-0.4c0,0,0-0.1-0.1-0.1
		c0,0,0,0,0,0c0,0,0,0,0,0c0-0.1,0.1-0.1,0.1-0.2c0.2-0.5,0.4-1,0.5-1.5c0.1-0.5,0.3-1,0.3-1.5c0-0.2,0.1-0.5,0.1-0.7
		c0-0.3,0-0.5,0-0.8c0-0.1,0-0.2,0-0.3c0-0.1-0.1-0.2-0.1-0.4c-0.1-0.2-0.3-0.3-0.5-0.3c-0.1,0-0.2,0-0.2,0.1
		c-0.1,0-0.1,0.1-0.2,0.1c-0.1,0.1-0.2,0.2-0.2,0.4c-0.1,0.1-0.1,0.3-0.2,0.4c-0.1,0.2-0.1,0.3-0.2,0.5c-0.1,0.4-0.2,0.8-0.3,1.2
		c-0.1,0.4-0.1,0.7-0.1,1.1c0,0-0.1,0-0.1,0c-0.2,0-0.5,0.1-0.7,0.3c-0.3,0.2-0.5,0.4-0.6,0.7c-0.2,0.3-0.2,0.7-0.2,1.1
		c0,0.1,0,0.2,0.1,0.4c-0.1,0-0.2,0.1-0.3,0.1c-0.1,0-0.1,0-0.2,0c-0.1,0-0.1-0.1-0.1-0.1c-0.1-0.1-0.1-0.2-0.1-0.3
		c0-0.1,0-0.2,0-0.3l0-0.4c0-0.1,0-0.3,0-0.4c0-0.1,0-0.1,0-0.2c0-0.1,0-0.2,0-0.3c-0.1-0.2-0.2-0.3-0.4-0.3c-0.1,0-0.2,0-0.2,0.1
		c-0.1,0-0.1,0.1-0.1,0.1c-0.1,0.1-0.1,0.1-0.1,0.2c0,0.1-0.1,0.1-0.1,0.2c-0.1,0.1-0.1,0.3-0.2,0.4c0,0.1-0.1,0.2-0.1,0.3
		c0,0,0-0.1,0-0.1c0-0.1,0-0.2,0-0.3c0-0.1,0-0.2,0-0.3c0-0.1,0-0.3-0.1-0.4c0-0.1-0.1-0.1-0.2-0.2c-0.1-0.1-0.2-0.1-0.3-0.1
		c-0.1,0-0.2,0-0.2,0.1c0,0-0.1,0.1-0.1,0.2c0,0,0,0,0,0.1c0,0.1,0,0.2,0.1,0.2c0,0,0,0,0,0c0,0,0,0,0,0c0,0.1,0,0.1,0,0.2
		c0,0,0,0.1,0,0.1c0,0,0,0,0,0c0,0.2,0,0.4,0,0.5c0,0,0,0.1,0,0.1c0,0,0,0,0,0c-0.1,0.1-0.2,0.2-0.3,0.3c-0.1,0.1-0.2,0.2-0.3,0.2
		c-0.1,0-0.2,0.1-0.2,0.1c0,0,0,0,0,0c-0.1,0-0.2,0-0.2-0.1c0,0-0.1-0.1-0.1-0.2c0-0.1,0-0.2,0-0.3c0-0.1,0-0.2,0-0.4c0,0,0,0,0,0
		c0,0,0,0,0,0c0-0.1,0-0.1,0-0.2c0-0.1,0-0.1-0.1-0.2c0,0-0.1-0.1-0.1-0.1c0,0,0,0,0,0c0.1,0,0.1,0,0.1-0.1c0,0,0,0,0,0
		c0.1-0.1,0.1-0.2,0.1-0.4c0-0.1,0-0.2-0.1-0.3c0,0,0,0,0,0c-0.1-0.1-0.2-0.2-0.4-0.3c-0.3-0.1-0.7-0.1-1,0.1
		c-0.2,0.1-0.3,0.2-0.4,0.3c-0.2,0.2-0.3,0.5-0.4,0.8c-0.1,0.3-0.2,0.6-0.2,0.9c0,0.1,0,0.2,0,0.3c0,0,0,0,0,0.1
		c-0.1,0.1-0.2,0.2-0.3,0.2c-0.2,0.1-0.4,0.1-0.6,0c-0.1,0-0.1-0.1-0.2-0.2c-0.1-0.1-0.1-0.1-0.1-0.2l0-0.1c0,0,0,0,0.1-0.1
		c0-0.1,0.1-0.1,0.1-0.2c0.2-0.3,0.4-0.6,0.5-0.9c0.1-0.3,0.3-0.6,0.4-1c0.1-0.4,0.2-0.7,0.3-1.1c0.1-0.4,0.1-0.7,0.1-1.1
		c0-0.2,0-0.4,0-0.5c0-0.2-0.1-0.4-0.2-0.6c-0.1-0.1-0.1-0.2-0.2-0.3c-0.1-0.1-0.3-0.2-0.4-0.2c-0.2,0-0.3,0.1-0.5,0.2
		c-0.1,0.1-0.2,0.2-0.3,0.3c-0.1,0.2-0.2,0.3-0.3,0.5c-0.1,0.2-0.1,0.3-0.2,0.5c-0.2,0.4-0.3,0.9-0.3,1.4c-0.1,0.5-0.1,0.9-0.1,1.4
		c0,0.2,0,0.4,0,0.6c0,0.2,0.1,0.4,0.1,0.7c0,0.1,0.1,0.2,0.1,0.2c0,0,0,0,0,0c0,0,0,0,0,0c0,0,0,0,0,0c-0.2,0.1-0.4,0.2-0.6,0.3
		c0-0.1,0-0.2,0.1-0.4c0-0.2,0-0.4-0.1-0.7c-0.1-0.2-0.2-0.4-0.3-0.6c0-0.1-0.1-0.1-0.1-0.2c0-0.1-0.1-0.1-0.1-0.2c0,0,0,0,0,0
		c0-0.1,0-0.1,0.1-0.2c0,0,0,0,0,0c0-0.1-0.1-0.2-0.2-0.3c-0.1,0-0.1,0-0.2,0c0,0-0.1,0-0.1,0c-0.1,0-0.2,0-0.2,0c0,0,0,0,0,0
		c-0.1,0.1-0.1,0.2-0.1,0.2c0,0.1,0,0.1-0.1,0.2c0,0.1-0.1,0.2-0.1,0.3c-0.1,0.1-0.1,0.3-0.2,0.5c-0.1,0.2-0.1,0.3-0.2,0.5
		c0,0.1-0.1,0.2-0.1,0.3c0,0,0,0-0.1,0c-0.1,0.1-0.1,0.2-0.1,0.3c0,0.1,0,0.1,0.1,0.2c0,0,0,0,0,0c0,0,0,0,0,0c0,0,0,0.1,0.1,0.1
		l0.2,0.2c0.1,0.1,0.2,0.1,0.3,0.2c0.2,0.1,0.3,0.1,0.5,0.1c0,0,0,0,0,0l0,0c0.1,0,0.2,0,0.2,0c0.3,0,0.5,0,0.7-0.1
		c0.2-0.1,0.4-0.2,0.6-0.3c0.1-0.1,0.2-0.1,0.2-0.2c0.1,0.1,0.1,0.2,0.2,0.2c0.1,0.1,0.2,0.2,0.3,0.2c0.2,0.1,0.4,0.2,0.7,0.2
		c0,0,0,0,0,0c0.2,0,0.5-0.1,0.7-0.3c0.1,0,0.1-0.1,0.1-0.1c0,0,0,0,0,0c0.1,0.1,0.2,0.2,0.3,0.2c0.1,0.1,0.2,0.1,0.4,0.1
		c0,0,0,0,0,0c0.2,0,0.4-0.1,0.5-0.2c0.1-0.1,0.2-0.2,0.3-0.4c0,0.1,0.1,0.1,0.2,0.2c0.1,0.1,0.2,0.2,0.4,0.2
		c0.4,0.1,0.8,0.1,1.1-0.2c0.1,0,0.1-0.1,0.2-0.1c0,0,0,0.1,0,0.1c0.1,0.1,0.2,0.2,0.4,0.2c0,0,0,0,0,0c0.2,0,0.3-0.1,0.4-0.3
		c0.1-0.1,0.2-0.2,0.2-0.4c0.1-0.1,0.1-0.3,0.2-0.4c0,0,0-0.1,0-0.1c0,0.1,0,0.2,0.1,0.4c0.1,0.2,0.1,0.3,0.2,0.5
		c0.1,0.1,0.2,0.2,0.3,0.3c0.1,0.1,0.3,0.1,0.4,0.1c0,0,0,0,0.1,0c0.2,0,0.4,0,0.5-0.1c0,0,0,0,0,0c0,0,0.1,0,0.1-0.1
		c0.1,0.1,0.2,0.1,0.3,0.2c0.1,0.1,0.3,0.1,0.4,0.1c0.2,0,0.4-0.1,0.5-0.1c0.1-0.1,0.3-0.2,0.4-0.3c0.1-0.1,0.1-0.1,0.2-0.2
		c0.1,0.1,0.1,0.2,0.2,0.3c0.1,0.1,0.2,0.2,0.3,0.2c0.2,0.1,0.3,0.1,0.5,0.1c0,0,0,0,0,0c0.2,0,0.4-0.1,0.6-0.2
		c0.2-0.1,0.4-0.3,0.5-0.5c0.1-0.1,0.1-0.1,0.1-0.2c0-0.1,0-0.1,0.1-0.2c0,0,0-0.1,0-0.1C149.1,52.7,149.1,52.6,148.9,52.6z
		 M135,52.9c0,0.1,0,0.1-0.1,0.2c0,0-0.1,0.1-0.1,0.1c-0.1,0-0.2,0-0.3-0.1c0,0,0,0,0,0c-0.1,0-0.1-0.1-0.2-0.1c0,0,0,0-0.1,0
		c0.1-0.2,0.2-0.3,0.3-0.5c0.1-0.1,0.1-0.3,0.2-0.4c0.1,0.1,0.1,0.2,0.1,0.3c0.1,0.1,0.1,0.3,0.1,0.4C135,52.8,135,52.9,135,52.9z
		 M136.8,52c0,0,0-0.1,0-0.1c0-0.2,0-0.4,0-0.6c0-0.4,0-0.8,0.1-1.2c0.1-0.4,0.2-0.8,0.3-1.2c0-0.1,0.1-0.3,0.1-0.4
		c0.1-0.1,0.1-0.3,0.2-0.4c0,0,0.1-0.1,0.1-0.1c0,0,0-0.1,0.1-0.1c0,0,0,0,0,0.1c0,0,0,0,0,0c0,0.1,0.1,0.2,0.1,0.3
		c0,0.1,0,0.2,0,0.3c0,0.4-0.1,0.8-0.2,1.3c-0.1,0.4-0.2,0.8-0.4,1.2c-0.1,0.2-0.2,0.5-0.3,0.7C136.9,51.8,136.9,51.9,136.8,52z
		 M140,51.8c0,0.1-0.1,0.1-0.1,0.2c0,0,0,0.1,0,0.1c0,0.1,0,0.2,0,0.2v0.2c-0.1,0.2-0.2,0.3-0.3,0.5c-0.1,0.1-0.1,0.1-0.2,0.2
		c0,0-0.1,0-0.1,0c0,0,0,0,0,0c0,0,0-0.1-0.1-0.1c0-0.1,0-0.2-0.1-0.2c0-0.1,0-0.2,0-0.3c0-0.2,0-0.4,0.1-0.5
		c0.1-0.2,0.1-0.3,0.3-0.5c0.1-0.1,0.1-0.2,0.2-0.3c0.1-0.1,0.1-0.1,0.1-0.1l0,0c0,0,0.1,0,0.1,0c0,0.1,0,0.2,0.1,0.3
		c0,0,0.1,0.1,0.1,0.1C140.1,51.7,140.1,51.7,140,51.8z M146.3,52.6c0,0.1-0.1,0.2-0.1,0.2c-0.1,0.1-0.1,0.2-0.2,0.3
		c-0.1,0.1-0.1,0.1-0.2,0.1c0,0-0.1,0-0.1,0c0,0-0.1,0-0.1-0.1c0-0.1,0-0.2,0-0.2c0-0.1-0.1-0.1-0.1-0.1c0,0,0,0,0,0c0,0,0,0,0,0
		c0,0,0,0,0,0c0-0.2,0-0.5,0.1-0.7c0.1-0.2,0.2-0.4,0.4-0.5c0.1-0.1,0.3-0.2,0.4-0.2c0,0.1,0,0.1,0,0.2c0,0.2,0,0.3,0.1,0.5
		c0,0.2,0.1,0.3,0.1,0.5C146.4,52.5,146.3,52.6,146.3,52.6z M147,51.1c0-0.2,0-0.4,0-0.6c0-0.3,0.1-0.6,0.1-0.9
		c0.1-0.4,0.2-0.7,0.3-1c0-0.1,0.1-0.1,0.1-0.2c0,0.2,0,0.5-0.1,0.7c-0.1,0.5-0.2,1-0.3,1.4C147.1,50.8,147,50.9,147,51.1z"/>
</g>
<g>
	<path class="st0" d="M45.8,29.6c1.1-0.4,2.2-0.8,2.7-1.6c1.7-2.4,3-6.9,3.4-10.2c0.9-8-0.4-16.4-1.5-17.6C50.2,0.1,50.1,0,49.9,0
		c-0.3,0-0.6,0.1-0.8,0.3c-0.4,0.4-0.3,1.1-0.1,2.4c0.3,2.2,0.6,8-0.5,12.5c-0.5,2.1-1.4,3.4-1.4,3.4c-0.1,0-0.1,0-0.2-0.1
		c-0.4-0.4-0.1-1.5,0-2.4c0-0.3,0.1-0.6,0.1-0.8c0.8-8.1,0.1-13.6-1.2-15C45.5,0.1,45.2,0,45,0c0,0,0,0,0,0c-0.2,0-0.3,0.1-0.5,0.2
		c-0.3,0.3-0.3,0.8-0.2,2.1c0.1,2.1,0.3,6-0.6,12.7c-0.3,2.3-0.7,3.8-1.3,3.6c-0.6-0.2-0.4-0.7-0.3-1.8c0-0.3,0-0.7,0.1-1
		c0.3-5.7-0.5-13.9-1.6-15.1c-0.2-0.2-0.4-0.2-0.5-0.2c-0.1,0-0.1,0-0.2,0c-0.8,0.2-0.7,1.4-0.7,4.1c0.1,2.3,0.2,5.5-0.2,9.1
		c-0.1-1.2-0.6-2.3-1.3-3c-1.1-1.2-2.6-1.3-3.6-1.1C34.4,9,34.7,8,34.6,6.9c-0.1-1.3-0.8-2.1-1.7-2.7c-2.4-1.3-5.2,0.1-6.1,1.8
		c-0.7-1-1.6-2.3-3-2.5c-2-0.4-4.9,0.2-6.5,1.5c-2,1.7-0.9,4.6-0.1,6.2c-1.3-0.1-2.9,0.3-3.7,2c-0.4,0.9-0.2,2.2,0.6,3.4
		c1.1,1.6,2.7,2.5,4.4,2.5c1.4,0,2.6-0.5,3.5-1.1l-3.2,6.1c-3.1,0.1-3.3,0.2-3.4,0.3c-0.2,0.1-1.6,1.3-3.3,2.9c0.2-0.4,0.1-0.8,0-1
		c-0.1-0.3-0.3-0.5-0.5-0.7c0-0.2-0.1-0.4-0.3-0.6c-0.6-0.8-1.3-0.8-1.8-0.6c-0.1-0.2-0.3-0.4-0.6-0.5c-1.8-0.9-7,1.5-8.2,2.2
		c-1.1,0.7-1,2.6,0.3,5.7c0.8,1.9,1.7,3.6,2,4c-0.2,0.1-0.4,0.2-0.7,0.4L4,38.9l-0.6,0.2c0,0,5,6.8,7.3,8.2c1.8,1.1,6.4,1.8,8.6,2.2
		l4.8,11.6l0,0.2c0,0.1-0.6,7.1-1.2,10.6l-0.1,0.5l0.5,0c0,0,1.7,0.1,4.1,0.2c-0.1,0.3-0.2,0.7-0.3,1c-2.5,0.3-5.4,0.8-5.2,1.3
		c0.2,0.4,2.4,0.5,4.8,0.4c-0.1,0.4-0.2,0.6-0.2,0.7c-0.2,0.5-0.1,1,0.2,1.4c0.3,0.4,0.7,0.6,1.2,0.6c0,0,0,0,0,0
		c0.7,0,1.6-0.5,2-1.7c0.1-0.2,0.2-0.6,0.3-1.1c1.7-0.1,3.1-0.2,3.1-0.2l0.7-0.9c0,0,0.7,1.1,1.4,1.1c0.7,0,10.9,1.4,10.3,0
		c-0.5-1.4-8.7-1.6-8.7-1.6s1-0.4,2.4-1c3.2-0.1,5.4-0.4,6.8-0.9l0.4-0.1l-0.1-0.4c0-0.1-0.1-0.9-0.3-2.1c0.6-0.4,1-0.8,1.1-1.1
		c0.6-1.4-2.1-7.7-3-9.6l0.4-0.2l-3.5-7.2c2.2,0,7.8-0.1,7.9-1.4c0.1-1.1-5-4.1-8.8-6.1c0,0,0,0,0,0c-0.2-0.2-0.4-0.4-0.8-0.6
		c0.1-0.7,0.3-1.6,0.5-2.5c0.2,0,0.4-0.1,0.7-0.1c1.1-0.3,2-1.6,2.2-3.3c0.2-1.3-0.1-3.3-1.1-4.3c0.1-0.3,0.2-0.6,0.2-0.7
		C42.8,30.4,44.2,30.2,45.8,29.6z M23.4,16.9c0.3-0.3,0.4-0.5,0.5-0.5c0.2-0.2,0.9-1,0.7-1.2c-0.2-0.2-0.4,0.2-1.1,0.8
		c0,0-1.9,1.9-4.8,2c-1.6,0-2.6-0.6-3.3-1.7c-0.6-0.9-0.8-1.9-0.5-2.6c1-2.2,3-1.6,3.1-1.6c0.2,0.1,1,0.7,1.1,0.6
		c0.1-0.2-0.1-0.5-0.7-1.3c0,0-2.5-3.4-0.1-5.5c1.3-1.1,3.2-1.6,4.9-1.2c1.4,0.3,2.3,1,2.9,2.1c0.1,0.1-0.3,1.2-0.2,1.2
		c0.2,0,0.4-0.6,0.9-1.4C27,6.6,29.3,4,32,5.5c0.7,0.4,1.2,1,1.4,1.6c0.4,1.4-0.3,3.1-0.3,3.1c-0.3,0.8-0.7,1.2-0.5,1.3
		c0.1,0.1,0.7-0.7,0.9-0.8c0.1,0,2.2-0.9,3.5,0.6c1.1,1.2,1.3,3.8-0.2,5.8c-0.9,1.2-3.8,2.1-5.6,1.5c-1.8-0.6-3.3-1.5-3.3-1.5
		c-0.2-0.2-0.4,0-0.2,0.2c0.1,0.1,1.3,1.5,3.3,2.2c0,0,0.1,0,0.1,0l0.6,4.4c-0.4,0-0.9,0-1.5,0c0-0.8,0-4.4-0.2-4.7
		c-0.2-0.3-0.5,3.8-0.5,4.7c-0.3,0-0.5,0-0.8,0c0.1-0.9,0.5-4.2,0.3-4.2c-0.3,0-0.9,3.4-1,4.2c-1,0-2,0-3.1,0c-1.9,0-3.4,0-4.5,0.1
		L23.4,16.9z M38.5,16.6c-0.1,0.5-0.2,1-0.3,1.5c-0.3,1.1-0.6,2.4-0.9,3.7c-0.5,1.8-0.9,3.4-0.9,4.2c0,1.1,0.6,1.7,1.2,2.3
		c0.6,0.6,0.9,1,0.9,1.5c-0.1,0.7-0.3,1.5-0.6,2.5c-0.1,0.1-0.3,0.1-0.4,0.2c-1.2-4.3-3.4-8.1-3.5-8.3L33.9,24l-0.3,0
		c0,0-0.1,0-0.4,0l-0.8-4.2c0,0,0.1,0,0.1,0c1.9,0,4-0.3,5.2-1.8C38.1,17.5,38.3,17.1,38.5,16.6z M11.2,26.5c0.1,0.2,0.2,0.6,0,0.9
		c-0.3,0.5-1.6,1.1-3.1,1.5c-0.2-0.1-0.4-0.2-0.6-0.2C9.5,27.9,10.7,27.1,11.2,26.5z M10.7,28.6c-0.5,0.5-1.1,1.1-1.6,1.7
		c0-0.3-0.1-0.5-0.2-0.7c0,0-0.1-0.1-0.1-0.1C9.4,29.3,10.1,29,10.7,28.6z M7.9,30.9c-0.1-0.2-0.4,0.5-1,0.6c-0.1,0-0.5,0.1-0.9-0.1
		c0,0-0.1-0.1-0.1-0.1c-0.2-0.2-0.2-0.5-0.1-0.9c0.2-0.4,0.6-0.8,0.9-1.1c0,0,0,0,0,0c0.1-0.1,0.2-0.1,0.3-0.2c0.1,0,0.2,0,0.2-0.1
		c0.4,0,0.8,0.3,0.9,0.5c0,0,0,0,0,0c0.4,0.6,0.3,1.2,0.1,1.6c-0.3,0.5-0.7,0.8-0.9,0.8c0,0,0,0,0,0c0,0,0-0.1,0.2-0.2
		c0.1-0.1,0.3-0.3,0.4-0.5C7.9,31.2,8,31,7.9,30.9z M9.7,25.4c0.4,0,0.7,0,0.8,0.3c0.2,0.5-1.5,1.6-4.4,2.7
		c-0.2-0.2-0.3-0.3-0.5-0.5C6.9,27.6,9.4,26.9,9.7,25.4z M2.1,31.3c-1.1-2.8-1.4-4.3-1-4.5c2.2-1.4,7.3-2.9,7.7-1.8
		c0.3,0.8-1.5,1.8-3.8,2.4c-0.3-0.2-0.5-0.3-0.7-0.3c-0.3,0-0.2,0.5,0.3,0.9c0.3,0.3,0.7,0.7,0.9,1.1c-0.1,0.1-0.2,0.2-0.3,0.3
		c-0.5-0.7-1.3-1.2-1.8-1.6c-0.3-0.2-0.8-0.4-0.9-0.1C2.3,28,2.6,28,3.2,28.5c0,0,2.5,1.7,1.5,4.1c0,0,0,0,0,0c0,0,0,0,0,0.1
		c0,0,0,0,0,0.1c0,0,0,0,0,0.1c0,0,0,0,0,0.1c0,0,0,0,0,0.1c0,0,0,0,0,0.1c0,0,0,0,0,0.1c0,0,0,0,0,0.1c0,0,0,0,0,0l0.9,1.7
		l-1.5,0.5C3.7,34.7,2.7,32.8,2.1,31.3z M5.6,37.5L4.5,38L4,36.6l1.8-0.7C5.6,36.4,5.5,37,5.6,37.5z M5.8,33l-0.1-0.2
		c0.1-0.2,0.1-0.4,0.2-0.6c0.3,0.2,0.5,0.3,0.8,0.3c-0.2,0.1-0.4,0.2-0.6,0.3C6.1,32.9,5.9,33,5.8,33z M6.6,33.9
		c0,0.1-0.1,0.2-0.1,0.2L6.4,34C6.4,34,6.5,34,6.6,33.9z M20.3,46.5c-0.2,0-0.4,0-0.6-0.1l-1.1-1.9c1.6,0.6,4,1.5,6.1,1.7
		c-1.4,0.2-2.8,0.2-4.2,0.2C20.5,46.5,20.4,46.5,20.3,46.5z M23.1,50c0.1-0.6,6-1.9,8.8-2.6c0,0.1,0,0.1,0,0.2c-4,1.1-8,2.3-8.2,2.6
		c0,0.4,2.1,5.4,4.1,9.9l-0.2,0.1C25.8,56.3,23.1,50.4,23.1,50z M32,48.7c0.5,0,0.9,0.4,0.9,0.8c0,0.5-0.4,0.8-0.9,0.8
		c-0.5,0-0.9-0.4-0.9-0.8C31,49,31.4,48.7,32,48.7z M29.6,56.8c0,0.5-0.4,0.8-0.9,0.8c-0.5,0-0.9-0.4-0.9-0.8c0-0.5,0.4-0.8,0.9-0.8
		C29.1,56,29.6,56.4,29.6,56.8z M26.9,51.3c0,0.5-0.4,0.8-0.9,0.8c-0.5,0-0.9-0.4-0.9-0.8c0-0.5,0.4-0.8,0.9-0.8
		C26.5,50.5,26.9,50.8,26.9,51.3z M23.9,71.6c0.4-2.4,0.7-6,0.9-8.2c0.1-0.7,0.1-1.3,0.1-1.6c0,0,0,0,0-0.1l1.1-0.3l0.9-0.2l1-0.2
		l0.1,0l0.2-0.1l2.3-0.5c0,0.1,0,0.2-0.1,0.2c-0.2,0.7-0.3,1.3-0.5,2.1c-0.2,0.8-0.4,1.7-0.7,2.7c-0.5,2-1,4.1-1.5,5.8
		c-0.1,0.2-0.1,0.4-0.2,0.6C25.9,71.7,24.6,71.6,23.9,71.6z M30.2,71.8c0,0.2-0.1,0.3-0.1,0.4c0,0.2-0.1,0.3-0.1,0.4
		c0,0.1,0,0.1,0,0.2c0,0.2-0.1,0.3-0.1,0.5c-0.2,0.8-0.4,1.4-0.5,1.9c-0.1,0.4-0.2,0.6-0.2,0.8c-0.3,0.8-0.7,1.1-1.1,1.1h0
		c-0.2,0-0.4-0.1-0.5-0.2c-0.1-0.2-0.1-0.4-0.1-0.6c0-0.1,0.1-0.5,0.3-1c0.1-0.5,0.3-1.1,0.5-1.8c0.1-0.3,0.1-0.5,0.2-0.8
		c0-0.1,0.1-0.3,0.1-0.4c0-0.1,0.1-0.3,0.1-0.4c0,0,0,0,0,0c0.5-1.8,1-3.9,1.6-6.2c0.3-1,0.5-2.1,0.8-3.1c0.2-0.7,0.3-1.3,0.5-2
		c0-0.1,0-0.2,0.1-0.3c0-0.2,0.1-0.3,0.1-0.5c0-0.2,0.1-0.3,0.1-0.5c1.1-4.5,2.2-8.5,2.5-9.7l0.8,0.2l0.7,0.1c0,0.2-0.1,0.4-0.2,0.7
		c-0.2,0.9-0.5,2.1-0.9,3.6c-0.1,0.4-0.2,0.9-0.3,1.4c-0.3,1-0.5,2.1-0.8,3.2c0,0.2-0.1,0.3-0.1,0.5c0,0.2-0.1,0.3-0.1,0.5
		c0,0.1-0.1,0.2-0.1,0.3c-0.2,0.6-0.3,1.2-0.5,1.9C31.8,65.5,30.9,69.1,30.2,71.8z M36,55c0,0.4-0.3,0.8-0.8,0.8
		c0.1-0.5,0.3-1,0.4-1.5C35.9,54.5,36,54.8,36,55z M41.8,57.8c0.1,0.2,0.2,0.3,0.3,0.5c0.1,0.2,0.2,0.4,0.3,0.7
		c1.4,3.1,2.4,8,2.9,10.6c0.1,0.6,0.2,1,0.2,1.3c-0.9,0.2-2.2,0.4-3.8,0.6c-2.1,0.2-4.9,0.3-8.1,0.3c-0.8,0-1.7,0-2.5,0
		c0.7-2.8,1.7-6.5,2.6-10.1c0.2-0.6,0.3-1.2,0.5-1.8c0-0.1,0.1-0.2,0.1-0.4L41.8,57.8z M39.9,49.1l0.1-0.5l0.1-0.3l0.1-0.2
		c0.1,0,0.2,0,0.3,0.1l-0.2,1.1l-0.1,0.5l-0.1,0.6l0,0.2l0,0.1L40,51.4l-0.1,0l-0.7-0.1l0.1-0.2v0l0-0.1l0.2-0.6l0.2-0.8L39.9,49.1z
		 M39.6,44.2c-0.2,0.5-0.5,1.3-0.7,2c-0.1,0.2-0.1,0.4-0.2,0.5c0,0,0,0,0,0c-0.2,0.5-0.3,0.9-0.3,0.9c0,0,0,0.1-0.1,0.1
		c-0.1,0.3-0.4,0.7-0.1,0.8c0.1,0.1,0.3-0.1,0.4-0.2c0.1-0.1,0.3-0.3,0.3-0.5l0.2,0.1l-0.3,1l-0.7,2.3c-0.5,0-1,0-1.3,0c0,0,0,0,0,0
		c-0.1,0-0.2-0.1-0.3-0.2c0.2-0.8,0.3-1.3,0.4-1.4l0.1-0.5l-0.1,0c-0.1-0.2-0.4-0.1-0.6-0.1l-2.3-0.5c-0.6-0.3-1.1-0.6-1.1-0.9
		c0.1-0.7,1.4-0.5,2.8-0.2c0.2,0,0.3,0.1,0.3,0.1c0.3,0,0.9,0.1,1-0.2c0.1-0.3-0.6-0.4-0.9-0.4c-0.1,0-0.3-0.1-0.5-0.1
		c-1.7-0.3-3.1-0.9-3.3-1.4c0-0.1,0-0.1,0-0.2c0-0.2,0.5-0.3,1.1-0.4c0.8,0,1.9,0.1,2.9,0.2c0.2,0,0.4,0.1,0.5,0.1
		c0.1,0,0.2,0,0.4,0c0.2,0,0.3-0.1,0.4-0.2c0.1-0.3-0.3-0.4-0.6-0.4c0,0-0.1,0-0.1,0c-0.1,0-0.2,0-0.3-0.1c-0.5-0.1-1.1-0.3-1.7-0.5
		c-0.3-0.1-0.6-0.3-0.9-0.4c-0.1,0-0.2-0.1-0.2-0.1c-0.5-0.3-0.8-0.7-0.6-1c0.1-0.3,0.9-0.3,1.9,0c0.2,0,0.4,0.1,0.6,0.1
		c0.1,0,0.2,0.1,0.3,0.1c0,0,0.1,0,0.1,0c0.1,0,0.2,0.1,0.3,0.1c0,0,0.1,0,0.1,0c0.1,0,0.3,0.1,0.4,0.1c0,0,0,0,0,0
		c0.2,0.1,0.4,0.1,0.6,0.2c0.1,0,0.1,0,0.2,0.1c0.1,0,0.2,0.1,0.3,0.1c0.3,0.1,0.5,0.2,0.8,0.3c0.3,0.1,0.5,0.2,0.7,0.4
		C39.4,44,39.5,44.1,39.6,44.2z M36.9,41.6c0.3-0.5,0.6-1,0.8-1.6c0.3,0.1,0.6,0.2,0.9,0.3c-0.1,0.7-0.3,1.4-0.4,1.9
		c-0.3-0.1-0.5-0.2-0.8-0.3C37.2,41.8,37,41.7,36.9,41.6z M41.6,36.6c-0.2,1.1-0.7,2.1-1.2,2.4c-0.1,0-0.1,0.1-0.2,0.1
		c-0.3,0.1-0.5,0.1-0.8,0.1c-0.2,0-0.3,0-0.5,0c-0.3,0-0.6,0-0.9-0.1c-0.2,0-0.4-0.1-0.6-0.1c-0.2,0-0.3-0.1-0.4-0.1c0,0,0,0,0,0
		c-0.2-0.1-0.4-0.1-0.4-0.1c0,0,0,0-0.1,0c-0.1-0.1-0.2-0.1-0.3-0.2c-0.2-0.1-0.3-0.1-0.4,0c-0.2,0.2,0.3,0.6,0.6,0.8
		c-0.1,0.6-0.2,1.1-0.4,1.6c-0.1,0.2-0.2,0.3-0.3,0.5c-1.1-0.3-2.1-0.4-2.8-0.2c-0.7,0.2-1,0.6-1,0.9c-0.1,0.4-0.1,0.8,0.2,1.2
		c0.1,0.2,0.4,0.4,0.6,0.6c-0.1,0-0.1,0.1-0.2,0.1c-0.4,0.1-0.7,0.2-1,0.3c-0.1,0.1-0.2,0.2-0.3,0.3c-1,0.4-2.1,0.8-3.3,1.1
		c0.9-0.5,2-1.3,2.2-1.9c0.4-1.1,0.3-5.3,0.2-7.4c0-1.4-0.1-2.5-0.1-2.6c0,0,0,0,0,0c0.2-0.2,0.4-0.5,0.4-0.8c0-0.6-0.5-1.2-1.1-1.2
		c-0.6,0-1.2,0.5-1.2,1.1c0,0.6,0.4,1.1,0.9,1.2c0.2,1.6,0.8,6-1,7c-1.8,1-10.4,0-14.5-0.5l1.7-1.9c0.2-0.2,0.7-0.5,0.6-0.7
		c-0.1-0.2-0.7,0-0.9,0.1c-1.1,0.4-5,0.4-6.5-0.8c-0.4-0.3-0.6-0.7-0.5-1.1c0-0.2,0.1-0.3,0.3-0.5c1.3-0.8,6.6-0.2,9.1,0.8
		c0.6,0.2,1,0,0.2-0.5c0.2-0.3,0.4-0.7,0.6-1.1c0.2-0.8,0-0.7-0.4,0c-0.2,0.4-0.5,0.6-0.7,0.9c-1.4-0.4-7.4-2.3-9.4-1
		C7.3,35,7,35.4,7,36c-0.1,0.8,0.3,1.5,0.9,2c1.4,1.1,4,1.3,5.8,1.3l-1.3,1.3c-0.1,0.1-0.2,0.4-0.1,0.6c0.1,0.2,0.2,0.3,0.4,0.4
		c0.7,0.1,4.8,0.6,8.6,0.8c3,0.1,5.8,0.1,7-0.6c0.6-0.3,1-0.8,1.3-1.5c0.1,0.9,0.2,2.3-0.1,3.1c-0.2,0.5-1.7,1.7-2.4,1.9
		c-2.2,0.9-7.7-1-9.5-1.8c-0.2-0.1-0.6-0.5-0.8-0.3c-0.2,0.2,0.1,0.5,0.2,0.7l1,2.4c-2-0.5-4.2-1.4-6.2-2.5c-3.1-1.8-5.1-4-5.4-5.9
		c-0.7-3.6,6.5-10.2,9.4-12.5c1.1-0.2,11-0.3,17.3-0.3c0.5,1,2.4,4.5,3.3,8.2c-0.3,0.3-0.6,0.5-0.6,0.5c-0.2,0.2-0.6,0.5-0.4,0.8
		c0.1,0.1,0.3,0.1,0.4-0.1c0.1-0.1,0.2-0.2,0.3-0.3c0,0,0.2-0.1,0.5-0.3c0.2-0.1,0.6-0.3,0.9-0.4c0,0,0,0,0,0
		c0.1-0.1,0.3-0.1,0.4-0.1c0.2,0,0.3-0.1,0.5-0.1c0.5-0.1,1.1-0.1,1.6,0.1c0.1,0.1,0.3,0.1,0.4,0.2c0,0,0,0,0,0
		c0.3,0.2,0.6,0.5,0.7,0.9C41.7,35,41.7,35.9,41.6,36.6z M29.4,33.5c-0.4,0-0.6-0.3-0.6-0.7c0-0.4,0.3-0.6,0.7-0.6
		c0.4,0,0.6,0.3,0.6,0.7C30.1,33.2,29.8,33.5,29.4,33.5z M40.8,31.5c0,0.1-0.1,0.3-0.2,0.4c-0.6-0.1-1.1-0.1-1.7,0
		c0.2-0.8,0.3-1.5,0.4-2l0-0.1c0.1-1-0.6-1.7-1.1-2.3c-0.5-0.5-1-1-1-1.7c0-0.6,0.4-2.3,0.9-4c0.3-1.3,0.7-2.5,0.9-3.7
		c1.2-5.5,1.1-10.5,1-13.7c0-1.1-0.1-2.3,0-2.9c0.6,1.7,1.2,8,0.9,13.7c0,0.4,0,0.7-0.1,1c-0.1,1.5-0.2,2.6,0.3,3.2
		c0.2,0.3,0.6,0.4,1,0.4c1.6-0.1,2-2.4,2.3-4.9c1-6.8,0.8-10.7,0.6-12.9c0-0.5-0.1-1,0-1.3c0.6,0.8,1.5,4.6,0.6,14.4
		c0,0.2-0.1,0.4-0.1,0.7c-0.2,1.6-0.4,3,0.2,3.6c0.2,0.2,0.5,0.4,0.8,0.4c0,0,0,0,0,0c0,0,0,0,0.1,0c1.2-0.1,2.2-2.6,2.6-4.4
		c1.3-6.6,0.8-10.9,0.5-13.1c-0.1-0.7-0.2-1.5-0.1-1.7c0.7,1,1.7,8.6,0.8,16.5c-0.4,3.1-1.6,7.5-3.2,9.7C46.9,27.7,46,28,45,28.4
		C43.5,28.9,41.6,29.7,40.8,31.5z"/>
	<path class="st0" d="M40.3,35.1c-0.1-0.2-0.2-0.4-0.3-0.5c-0.1-0.1-0.3-0.2-0.5-0.3c-0.3-0.1-0.7-0.1-1.1,0.1
		c-0.1,0-0.3,0.1-0.4,0.2c0,0-0.1,0-0.1,0.1c-0.2,0.1-0.4,0.2-0.5,0.3c-0.1,0.1-0.2,0.2-0.4,0.2c-0.4,0.3-0.8,0.6-0.9,0.7
		c0,0,0,0,0,0c-0.2,0.1-0.1,0.4,0.1,0.4c0,0,0.1,0,0.1-0.1c0.2-0.1,0.5-0.3,0.8-0.4c0,0,0.1,0,0.1,0c0,0,0.1,0,0.1,0
		c0.1-0.1,0.3-0.1,0.4-0.1c0.2-0.1,0.3-0.1,0.4-0.1c0,0,0,0,0,0c0.4-0.1,0.8-0.2,1-0.1c0.1,0,0.2,0.2,0.2,0.3
		c0.1,0.3,0.1,0.6,0.2,0.9c0,0.4,0.1,0.8,0,1c0,0.1,0,0.2,0,0.3c0,0.2,0,0.4,0.1,0.4c0,0,0,0,0,0c0.1,0,0.3-0.1,0.4-0.2
		c0.4-0.4,0.6-1.8,0.4-2.6C40.3,35.3,40.3,35.2,40.3,35.1z"/>
	<path class="st0" d="M24.3,34.3c-0.2,0.3-0.7,0.9-1.7,0.6c-0.1,0-0.2-0.1-0.2-0.1c0.4-0.2,0.7-0.9,0.7-1.7c0-1-0.3-1.8-0.8-1.8
		c-0.5,0-0.9,0.8-1,1.7c0,0.2,0,0.4,0,0.6c0,0,0,0,0,0c0,0.1,0.1,1.4,1.2,1.7c0.2,0,0.3,0.1,0.4,0.1c1,0,1.4-0.7,1.6-1.1
		C24.5,34.2,24.4,34.2,24.3,34.3z"/>
	<path class="st0" d="M15.8,31.2c-0.5,0-0.9,0.7-0.9,1.7c0,0.6,0.1,1.2,0.4,1.5c-0.1,0-0.1,0-0.2,0c-0.5-0.1-0.8-1-0.8-1
		c0-0.1-0.2-0.1-0.2,0c0,0,0,1.1,0.8,1.3c0.1,0,0.2,0,0.3,0.1c0.4,0,0.6-0.1,0.8-0.3c0,0,0,0,0,0c0,0,0,0,0.1-0.1c0,0,0,0,0,0
		c0.1-0.1,0.1-0.1,0.1-0.2c0,0,0,0,0,0c0,0,0,0,0,0c0.2-0.3,0.3-0.7,0.3-1.2C16.6,32,16.3,31.2,15.8,31.2z"/>
	<path class="st0" d="M25.5,26c-0.7-0.6-1.6-0.3-1.6-0.3s1.5,0.7,2.4,2C26.3,27.7,26.5,26.9,25.5,26z"/>
	<path class="st0" d="M15.9,26.8C15,27,14.7,28,14.7,28s1.5-0.8,3-0.7C17.7,27.2,17.1,26.5,15.9,26.8z"/>
</g>
</svg>
