<?xml version="1.0" encoding="utf-8"?>
<!-- Generator: Adobe Illustrator 22.1.0, SVG Export Plug-In . SVG Version: 6.00 Build 0)  -->
<svg version="1.1" id="レイヤー_1" xmlns="http://www.w3.org/2000/svg" xmlns:xlink="http://www.w3.org/1999/xlink" x="0px"
	 y="0px" viewBox="0 0 82 124" style="enable-background:new 0 0 82 124;" xml:space="preserve">
<style type="text/css">
	.st0{fill:#FFFFFF;}
</style>
<g>
	<path class="st0" d="M8.5,91.8c-0.1,0-0.5,0-0.5,0.3c0,0.2,0.2,0.2,0.3,0.3c0.2,0,0.3,0.1,0.3,0.7v4.7c0,0.3,0,0.3-0.4,0.4
		c-0.1,0-0.2,0.1-0.2,0.3c0,0.3,0.4,0.3,0.5,0.3h2.3c0.1,0,0.5,0,0.5-0.3c0-0.2-0.1-0.2-0.2-0.3c-0.4-0.1-0.4-0.1-0.4-0.4v-6.1
		L8.5,91.8z"/>
	<path class="st0" d="M14.6,98.4v0.5c1.4-0.2,2.7-1.2,2.7-3.7c0-2.4-1.3-3.5-2.7-3.7v0.5c0.5,0.2,0.5,0.5,0.5,0.9v4.4
		C15.1,97.9,15.1,98.2,14.6,98.4z"/>
	<path class="st0" d="M11.5,95.2c0,2.4,1.3,3.5,2.7,3.7v-0.5c-0.5-0.2-0.5-0.5-0.5-0.9V93c0-0.4,0.1-0.7,0.5-0.9v-0.5
		C12.8,91.8,11.5,92.8,11.5,95.2z"/>
	<path class="st0" d="M17.8,91.8c-0.1,0-0.5,0-0.5,0.3c0,0.2,0.2,0.2,0.3,0.3c0.2,0,0.3,0.1,0.3,0.7v4.7c0,0.3,0,0.3-0.4,0.4
		c-0.2,0-0.2,0.1-0.2,0.3c0,0.3,0.4,0.3,0.5,0.3h2.3c0.1,0,0.5,0,0.5-0.3c0-0.2-0.1-0.2-0.2-0.3C20,98.1,20,98.1,20,97.8v-6.1
		L17.8,91.8z"/>
	<path class="st0" d="M23.6,91.7l-1.9-0.2l-0.2,1.7l1.4,0.1c0.7,0,1.3-0.1,1.9-0.5c0.5-0.3,0.8-0.8,0.9-1.4
		C25.2,91.8,24.2,91.8,23.6,91.7z"/>
	<path class="st0" d="M21.3,95.3c0,0.2,0.1,0.3,0.3,0.3c0.1,0,0.3-0.1,0.4-0.2c0.3-0.2,0.6-0.3,0.9-0.4v-0.7c-0.4,0.1-0.8,0.3-1,0.6
		l0.1-1.1l-0.5-0.1L21.3,95.3z"/>
	<path class="st0" d="M23.3,94.3V95c0.5,0.1,0.5,0.7,0.5,1v1.3c0,0.3,0,0.9-0.5,1v0.5c1.4,0,2.6-0.7,2.6-2.3
		C26,95,24.8,94.2,23.3,94.3z"/>
	<path class="st0" d="M21,97.3c0,1,1.1,1.5,1.9,1.6v-0.6c-0.1,0-0.5-0.1-0.5-0.3c0-0.1,0.5-0.3,0.5-0.9c0-0.5-0.4-0.9-0.9-0.9
		C21.4,96.3,21,96.7,21,97.3z"/>
	<path class="st0" d="M8,106.9c-0.1,0-0.2,0.1-0.2,0.2c0,0.3,0.2,0.3,0.3,0.3h2.5v-6.9H8.1c-0.1,0-0.3,0-0.3,0.3
		c0,0.1,0.1,0.2,0.2,0.2c0.3,0.1,0.3,0.2,0.3,0.5v4.8C8.3,106.7,8.3,106.8,8,106.9z"/>
	<path class="st0" d="M11,100.5v0.5c0.6,0.1,0.7,0.4,0.7,0.8v0.9c0,0.3,0,0.7-0.7,0.8v0.5c0.6,0,0.7,0.4,0.7,0.9v1.2
		c0,0.3-0.1,0.7-0.7,0.7v0.5h0.3c0.7,0,1.2,0,1.8-0.3c0.6-0.3,0.9-0.8,0.9-1.5c0-1.2-0.8-1.6-1.8-1.8v0c0.9-0.1,1.7-0.6,1.7-1.6
		c0-0.7-0.3-1.1-0.9-1.4c-0.5-0.3-1.1-0.3-1.7-0.3H11z"/>
	<path class="st0" d="M16.7,101l0.9,4.1h-1.1l-0.1,0.5h1.3l0.2,0.7c0.1,0.4,0,0.4-0.2,0.6c-0.1,0.1-0.2,0.1-0.2,0.3
		c0,0.2,0.3,0.3,0.5,0.3h2.3c0.2,0,0.5,0,0.5-0.2c0-0.2-0.1-0.2-0.2-0.3c-0.3-0.1-0.3-0.3-0.3-0.5l-1.4-5.8h-2L16.7,101z"/>
	<path class="st0" d="M14.3,107.1c0,0.3,0.3,0.3,0.5,0.3h1.1c0.2,0,0.5,0,0.5-0.2c0-0.2-0.1-0.2-0.3-0.3c-0.3-0.1-0.4-0.3-0.3-0.9
		l0.9-3.2l-0.2-1h0l-1.1,4.1c-0.2,0.7-0.4,0.9-0.6,1C14.5,106.9,14.3,106.9,14.3,107.1z"/>
	<path class="st0" d="M21.5,104.9c-0.3,0-0.3,0.3-0.3,0.5v1.8c0,0,0,0.4,0.3,0.4c0.2,0,0.2-0.3,0.5-0.3c0.3,0,0.5,0.3,1.3,0.3V107
		c-0.8-0.2-1.3-1.1-1.5-1.8C21.8,105,21.7,104.9,21.5,104.9z"/>
	<path class="st0" d="M24.3,102.8c-1.1-0.4-1.4-0.7-1.4-1.2c0-0.4,0.3-0.6,0.7-0.8v-0.5c-1.4,0-2.4,0.9-2.4,2.3c0,1.5,1.1,2,2.2,2.5
		c0.4,0.2,1.1,0.4,1.1,1c0,0.5-0.4,0.7-0.8,0.8v0.5c1.4,0,2.6-1,2.6-2.4C26.3,104.3,25.9,103.4,24.3,102.8z"/>
	<path class="st0" d="M25.8,100.4c-0.2,0-0.2,0.3-0.5,0.3c-0.1,0-0.7-0.4-1.3-0.4v0.5c0.7,0.2,1.3,0.9,1.4,1.5
		c0,0.2,0.1,0.4,0.3,0.4c0.3,0,0.3-0.2,0.3-0.4v-1.6C26,100.7,26.1,100.4,25.8,100.4z"/>
	<path class="st0" d="M30.2,107.4h2.1v-1.8c0,0,0-0.3-0.3-0.3c-0.2,0-0.2,0.1-0.3,0.3c-0.2,0.7-0.8,1.2-1.6,1.3V107.4z"/>
	<path class="st0" d="M30.2,104.2c0.4,0.1,0.6,0.5,0.6,0.8c0,0.2,0.1,0.3,0.3,0.3c0.3,0,0.2-0.3,0.2-0.4v-2c0-0.1,0-0.4-0.2-0.4
		c-0.2,0-0.2,0.1-0.3,0.3c-0.1,0.4-0.3,0.7-0.6,0.8V104.2z"/>
	<path class="st0" d="M31.7,102.4c0,0.1,0.1,0.2,0.2,0.2c0.3,0,0.3-0.2,0.3-0.2v-1.9h-2.1v0.5C31,101.2,31.5,101.6,31.7,102.4z"/>
	<path class="st0" d="M27.2,106.9c-0.1,0-0.2,0.1-0.2,0.2c0,0.3,0.3,0.3,0.3,0.3h2.4v-6.9h-2.4c0,0-0.3,0-0.3,0.3
		c0,0.1,0.1,0.2,0.2,0.2c0.3,0.1,0.3,0.2,0.3,0.5v4.8C27.5,106.7,27.5,106.8,27.2,106.9z"/>
	<path class="st0" d="M12.7,111.6c0.3,0,0.3-0.3,0.3-0.3v-2.1c0,0,0-0.3-0.3-0.3c-0.1,0-0.2,0.1-0.2,0.2c-0.1,0.1-0.1,0.2-0.2,0.2
		c-0.2,0-0.9-0.4-1.3-0.4v0.5c0.9,0.2,1.3,1.2,1.4,1.9C12.4,111.5,12.5,111.6,12.7,111.6z"/>
	<path class="st0" d="M10.9,116c1,0,2.1-1.1,2.1-1.8c0-0.2-0.1-0.3-0.3-0.3c-0.2,0-0.2,0.1-0.3,0.3c-0.2,0.7-0.8,1.2-1.5,1.3V116z"
		/>
	<path class="st0" d="M10.5,116v-0.5c-0.4-0.1-0.6-0.5-0.6-0.9v-4.4c0-0.4,0.1-0.8,0.6-0.9v-0.5c-1.8,0.1-3,1.6-3,3.7
		C7.5,114.4,8.5,116,10.5,116z"/>
	<path class="st0" d="M16.6,115.3c-0.1,0.1-0.2,0.1-0.2,0.3c0,0.2,0.3,0.3,0.5,0.3h2.3c0.2,0,0.5,0,0.5-0.2c0-0.2-0.1-0.2-0.2-0.3
		c-0.3-0.1-0.3-0.3-0.3-0.5l-1.4-5.8h-2l-0.1,0.5l0.9,4.1h-1.1l-0.1,0.5h1.3l0.2,0.7C16.9,115.1,16.8,115.2,16.6,115.3z"/>
	<path class="st0" d="M13.6,115.3c-0.2,0.1-0.4,0.1-0.4,0.3c0,0.3,0.3,0.3,0.5,0.3h1.1c0.2,0,0.5,0,0.5-0.2c0-0.2-0.1-0.2-0.3-0.3
		c-0.3-0.1-0.4-0.3-0.3-0.9l0.9-3.1l-0.2-1h0l-1.1,4C14.1,115,13.8,115.2,13.6,115.3z"/>
	<path class="st0" d="M20.1,109.3c0,0.2,0.2,0.2,0.4,0.2c0.2,0,0.2,0.1,0.3,0.3c0.1,0.1,0.1,0.3,0.2,0.4l1.9,5.7h0.3l1.2-3.9v-1.7h0
		l-0.4,1.5h0l-1-2.8h-2.3C20.4,109,20.1,109,20.1,109.3z"/>
	<path class="st0" d="M20.9,111.3L20.9,111.3l0,3.1c-0.1,1.2-0.7,0.8-0.7,1.2c0,0.3,0.4,0.3,0.5,0.3h1.1c0.1,0,0.5,0,0.5-0.3
		c0-0.4-0.6,0-0.7-1.2v-1.6L20.9,111.3z"/>
	<path class="st0" d="M24.7,114.8c0,0.3,0,0.4-0.3,0.5c-0.1,0-0.2,0.1-0.2,0.2c0,0.3,0.3,0.3,0.3,0.3h2.6c0,0,0.3,0,0.3-0.3
		c0-0.1-0.1-0.2-0.2-0.2c-0.3-0.1-0.3-0.2-0.3-0.5V110c0-0.3,0-0.4,0.3-0.5c0.1,0,0.2-0.1,0.2-0.2c0-0.3-0.3-0.3-0.3-0.3h-2.4V114.8
		z"/>
	<path class="st0" d="M31.3,112.7v0.5c0.9,0,1.4-0.1,1.8-0.3c0.7-0.4,0.9-1,0.9-1.8c0-0.8-0.3-1.4-0.9-1.8c-0.4-0.2-0.9-0.3-1.8-0.3
		v0.5c0.5,0.1,0.6,0.5,0.6,0.9v1.4C31.9,112.2,31.9,112.6,31.3,112.7z"/>
	<path class="st0" d="M31.1,115.9c0,0,0.3,0,0.3-0.3c0-0.1-0.1-0.2-0.2-0.2c-0.3-0.1-0.3-0.2-0.3-0.5V109h-2.4c0,0-0.3,0-0.3,0.3
		c0,0.1,0.1,0.2,0.2,0.2c0.3,0.1,0.3,0.2,0.3,0.5v4.8c0,0.3,0,0.4-0.3,0.5c-0.1,0-0.2,0.1-0.2,0.2c0,0.3,0.3,0.3,0.3,0.3H31.1z"/>
	<path class="st0" d="M17.7,120.6C17.6,120.6,17.6,120.6,17.7,120.6c-0.1,0-0.1,0-0.1,0.1c0,0,0,0,0,0.1c0,0,0,0,0,0l-0.1,0.1
		c0,0-0.1,0.1-0.1,0.1c0,0,0,0.1-0.1,0.1c0,0,0,0,0,0c0,0,0,0-0.1,0c-0.1,0-0.2-0.1-0.2-0.1c0-0.1-0.1-0.2-0.1-0.3
		c0-0.1,0-0.2,0-0.3c0-0.1,0-0.2,0.1-0.3c0,0,0,0,0,0c0-0.1,0-0.1-0.1-0.2c0,0-0.1,0-0.1,0c0,0-0.1,0-0.1,0c-0.1,0-0.1,0.1-0.2,0.1
		c-0.1,0-0.1,0.1-0.2,0.1c-0.1,0.1-0.2,0.2-0.2,0.2c0,0-0.1,0.1-0.1,0.1c0,0,0,0,0,0c0-0.1,0.1-0.2,0.1-0.3c0.1-0.1,0.1-0.3,0.2-0.4
		c0.1-0.1,0.1-0.3,0.2-0.4c0.1-0.1,0.1-0.3,0.2-0.5c0.1-0.2,0.1-0.3,0.1-0.5c0-0.1,0-0.1,0-0.2c0-0.1,0-0.1-0.1-0.2
		c-0.1-0.1-0.2-0.2-0.3-0.2c-0.1,0-0.2,0-0.3,0.1c-0.1,0-0.1,0.1-0.1,0.1c0,0-0.1,0.1-0.1,0.2c-0.1,0.1-0.1,0.2-0.1,0.4
		c0,0.1-0.1,0.3-0.1,0.4l-0.7,0l0,0c0,0,0-0.1,0-0.1c0,0,0,0,0,0c0,0,0,0,0,0c0,0,0-0.1,0-0.1c0,0,0-0.1-0.1-0.1c0,0-0.1,0-0.1,0
		c0,0,0,0-0.1,0c0,0,0,0,0,0c0,0-0.1,0-0.1,0.1c0,0,0,0,0,0.1c0,0,0,0,0,0l0,0.2l-0.8,0h-0.1c-0.1,0-0.2,0-0.2,0.1c0,0,0,0.1,0,0.1
		c0,0,0,0,0,0c0,0,0,0.1,0.1,0.1c0,0,0.1,0,0.1,0c0,0,0.1,0,0.1,0c0,0,0.1,0,0.1,0c0.1,0,0.2,0,0.3,0h0.3l0.2,0c0,0,0,0,0,0
		c0,0,0,0.1,0,0.1c0,0.1,0,0.2-0.1,0.4c0,0.1,0,0.2,0,0.4c0,0.1,0,0.2,0,0.3c0,0.1,0,0.1,0,0.2l0,0c0,0,0,0,0,0c0,0,0,0,0,0
		c0,0,0,0,0,0.1c0,0.1-0.1,0.1-0.1,0.1c0,0-0.1,0.1-0.1,0.1c0,0-0.1,0-0.1,0c0,0,0,0-0.1-0.1c0-0.1,0-0.1,0-0.2c0-0.1,0-0.2,0-0.3
		c0,0,0-0.1,0-0.1c0,0,0-0.1,0-0.1c0,0,0-0.1,0-0.1c0-0.1,0-0.1-0.1-0.1c0,0,0,0,0,0c0,0-0.1,0-0.1,0s-0.1,0-0.1,0.1
		c0,0,0,0.1,0,0.1l0,0.1c0,0,0,0.1,0,0.1c0,0,0,0.1,0,0.1c0,0.1-0.1,0.2-0.1,0.3c0,0.1-0.1,0.2-0.1,0.2c0,0.1-0.1,0.1-0.1,0.2
		c0,0-0.1,0.1-0.1,0.1c0,0,0,0,0,0c0,0,0,0,0,0c0,0,0-0.1,0-0.1c0-0.1,0-0.2,0-0.2c0,0,0,0,0,0c0,0,0,0,0,0c0,0,0-0.1,0-0.1
		c0,0,0,0,0,0c0,0,0,0,0-0.1c0,0,0-0.1,0-0.1c0,0,0-0.1,0-0.1c0,0,0-0.1,0-0.1c0-0.1,0-0.1,0-0.1c0,0,0,0,0,0c0,0-0.1,0-0.1,0
		c-0.1,0-0.1,0-0.2,0c0,0-0.1,0.1-0.1,0.1c0,0,0,0,0,0.1c0,0,0,0.1,0,0.1c0,0,0,0.1,0,0.1c0,0.1,0,0.1,0,0.2c0,0,0,0,0,0
		c-0.1,0-0.1,0-0.2,0c0,0,0,0,0-0.1c0,0,0-0.1,0-0.2c0-0.1,0-0.1,0-0.2c0-0.1-0.1-0.2-0.1-0.2c0,0-0.1-0.1-0.2-0.1
		c-0.1,0-0.1,0-0.2,0c0,0,0,0,0,0c-0.1,0-0.2,0-0.3,0.1c0,0-0.1,0.1-0.1,0.1c0,0-0.1,0-0.1,0.1c0,0-0.1,0.1-0.1,0.1
		c-0.1,0.1-0.1,0.2-0.1,0.2c0,0.1,0,0.1-0.1,0.2c0,0,0-0.1-0.1-0.1c-0.1-0.1-0.1-0.1-0.2-0.2c-0.1-0.1-0.2-0.1-0.3-0.2
		c-0.1,0-0.2-0.1-0.3-0.1c-0.3-0.1-0.6-0.2-1-0.4c-0.3-0.1-0.6-0.2-1-0.4c-0.1-0.1-0.2-0.1-0.3-0.2c-0.1-0.1-0.2-0.1-0.3-0.2
		c0,0-0.1-0.1-0.1-0.1c0,0-0.1-0.1-0.1-0.1c0,0,0,0,0-0.1c0,0,0,0,0-0.1c0-0.1,0-0.1,0.1-0.2c0-0.1,0.1-0.1,0.2-0.2
		c0.1-0.1,0.2-0.1,0.3-0.2c0.1,0,0.2-0.1,0.3-0.1c0.6-0.2,1.2-0.3,1.8-0.3c0.1,0,0.3,0,0.4,0c0.1,0,0.3,0,0.4,0.1
		c0.1,0,0.2,0.1,0.2,0.1c0,0,0,0,0.1,0.1c0,0,0,0,0,0.1c0,0,0,0,0,0c0,0,0,0,0,0.1c0,0,0,0.1-0.1,0.1c0,0-0.1,0-0.1,0.1
		c0,0-0.1,0-0.1,0.1c-0.1,0-0.1,0-0.2,0c0,0-0.1,0-0.1,0c0,0-0.1,0-0.1,0c0,0,0,0,0,0c-0.1,0-0.1,0.1-0.1,0.1c0,0,0,0.1,0,0.1
		c0,0,0,0,0,0c0,0.1,0.1,0.1,0.2,0.2c0.1,0,0.1,0,0.2,0c0,0,0.1,0,0.1,0c0.1,0,0.2-0.1,0.3-0.1c0.1-0.1,0.2-0.1,0.3-0.2
		c0-0.1,0.1-0.1,0.1-0.2c0-0.1,0-0.1,0-0.2c0-0.1,0-0.1,0-0.2c0-0.1,0-0.1-0.1-0.1c0-0.1-0.1-0.1-0.2-0.2c-0.1,0-0.1-0.1-0.2-0.1
		c-0.2-0.1-0.3-0.1-0.5-0.2c-0.2,0-0.4,0-0.6,0c-0.3,0-0.7,0-1,0.1c-0.3,0.1-0.7,0.2-1,0.3c-0.1,0.1-0.3,0.1-0.4,0.2
		c-0.1,0.1-0.3,0.2-0.4,0.3c-0.1,0.1-0.1,0.1-0.2,0.2c0,0.1-0.1,0.2-0.1,0.3c0,0.1,0,0.2,0.1,0.3c0.1,0.1,0.1,0.2,0.2,0.2
		c0.1,0.1,0.2,0.2,0.3,0.2c0.1,0.1,0.2,0.1,0.4,0.2c0.3,0.1,0.6,0.3,1,0.4c0.3,0.1,0.6,0.2,1,0.3c0.1,0,0.2,0.1,0.3,0.1
		c0.1,0,0.2,0.1,0.3,0.1c0,0,0.1,0,0.1,0.1c0,0,0.1,0,0.1,0.1c0,0,0,0,0.1,0c0,0,0,0,0,0c0,0,0,0-0.1,0.1c-0.1,0-0.1,0.1-0.3,0.1
		c-0.3,0.1-0.5,0.2-0.8,0.2c-0.3,0-0.6-0.1-0.9-0.1c-0.3-0.1-0.6-0.2-0.9-0.4c0,0,0,0,0,0c0,0,0,0-0.1,0c0,0,0,0,0,0c0,0,0,0,0,0
		l0,0c0,0,0,0-0.1,0c-0.1,0-0.1,0-0.1,0.1c0,0,0,0.1,0,0.1c0,0,0,0,0,0c0,0.1,0.1,0.1,0.2,0.2c0.1,0,0.1,0.1,0.2,0.1
		c0.1,0,0.1,0.1,0.2,0.1c0.2,0.1,0.5,0.2,0.7,0.3c0.3,0.1,0.5,0.1,0.8,0.1h0c0,0,0,0,0.1,0c0.2,0,0.3,0,0.5,0c0.2,0,0.3-0.1,0.5-0.2
		c0.1,0,0.1-0.1,0.2-0.1c0.1,0,0.1-0.1,0.2-0.2c0,0,0.1-0.1,0.1-0.1c0,0,0,0,0,0c0,0.1,0.1,0.2,0.1,0.2c0,0,0.1,0.1,0.2,0.1
		c0.1,0,0.1,0,0.2,0c0.1,0,0.2,0,0.3-0.1c0.1-0.1,0.1-0.1,0.2-0.2c0.1-0.1,0.1-0.1,0.1-0.2c0,0,0,0,0.1,0c0.1,0,0.2,0,0.2,0
		c0,0,0,0.1,0,0.1c0,0.1,0,0.1,0.1,0.2c0,0.1,0.1,0.2,0.2,0.2c0.1,0,0.1,0,0.2,0c0,0,0,0,0,0c0.1,0,0.2,0,0.2-0.1
		c0.1,0,0.1-0.1,0.1-0.2c0,0,0.1-0.1,0.1-0.1c0,0,0,0.1,0.1,0.1c0,0,0,0,0,0c0,0,0,0.1,0.1,0.1c0,0,0.1,0.1,0.1,0.1
		c0.1,0,0.1,0,0.2,0c0,0,0,0,0.1,0c0.1,0,0.2,0,0.3-0.1c0,0,0.1-0.1,0.1-0.1c0,0.1,0.1,0.1,0.1,0.2c0.1,0,0.1,0.1,0.2,0.1
		c0.1,0,0.1,0,0.2,0c0.1,0,0.2,0,0.2-0.1c0.1,0,0.1-0.1,0.2-0.1c0,0,0.1-0.1,0.1-0.1c0,0,0,0,0,0.1v0c0,0,0,0.1,0,0.1c0,0,0,0,0,0
		c0,0,0,0,0,0c0,0,0.1,0.1,0.1,0.1c0,0,0,0,0.1,0h0c0.1,0,0.1,0,0.1,0c0,0,0.1-0.1,0.1-0.1c0,0,0,0,0-0.1c0,0,0-0.1,0.1-0.1
		c0,0,0.1-0.1,0.1-0.1c0-0.1,0.1-0.1,0.1-0.2c0,0,0.1-0.1,0.1-0.1c0,0,0,0.1,0,0.1c0,0.2,0,0.3,0.1,0.5c0.1,0.1,0.2,0.2,0.4,0.2l0,0
		c0.1,0,0.2,0,0.2-0.1c0.1,0,0.1-0.1,0.2-0.1c0-0.1,0.1-0.1,0.1-0.2c0-0.1,0.1-0.1,0.1-0.2c0,0,0,0,0-0.1
		C17.8,120.7,17.8,120.7,17.7,120.6C17.7,120.6,17.7,120.6,17.7,120.6z M16.2,119.2C16.2,119.2,16.2,119.2,16.2,119.2
		C16.2,119.2,16.2,119.2,16.2,119.2c0-0.1,0-0.1,0-0.1c0-0.1,0-0.1,0-0.2c0-0.1,0-0.2,0.1-0.3c0-0.1,0.1-0.2,0.1-0.3c0,0,0,0,0,0
		c0,0,0,0,0-0.1c0,0,0,0,0-0.1c0,0,0,0,0,0c0,0,0,0,0,0c0,0,0,0.1,0,0.1c0,0.1,0,0.1,0,0.2c0,0.1,0,0.1-0.1,0.2
		c-0.1,0.2-0.2,0.4-0.3,0.6c0,0,0,0,0,0C16.2,119.3,16.2,119.3,16.2,119.2z M12.1,120.7c0,0-0.1,0.1-0.1,0.1c0,0-0.1,0-0.1,0
		c0,0,0,0,0,0c0,0,0,0-0.1,0c0,0,0-0.1,0-0.1c0,0,0-0.1,0-0.1c0-0.1,0-0.1,0-0.2c0,0,0-0.1,0.1-0.1c0,0,0,0.1,0,0.1
		c0,0.1,0.1,0.1,0.2,0.2C12.1,120.6,12.1,120.7,12.1,120.7C12.1,120.7,12.1,120.7,12.1,120.7z M12.2,120.4
		C12.2,120.4,12.2,120.4,12.2,120.4C12.2,120.3,12.2,120.3,12.2,120.4l-0.1-0.2c0,0,0-0.1,0-0.1c0,0,0,0,0,0c0,0,0,0,0,0
		c0.1,0,0.1,0,0.1,0c0,0,0,0,0,0c0,0,0,0,0,0.1c0,0,0,0.1,0,0.1C12.3,120.3,12.3,120.3,12.2,120.4z M15.8,119.5c0,0.2,0,0.4-0.1,0.5
		c0,0.2,0,0.3,0,0.5c0,0,0,0,0,0c0,0,0,0,0,0.1c0,0.1-0.1,0.1-0.1,0.2c0,0.1-0.1,0.1-0.1,0.1c0,0-0.1,0-0.1,0.1c-0.1,0-0.1,0-0.2,0
		c0,0,0,0-0.1-0.1c0-0.1-0.1-0.1-0.1-0.2c0-0.1,0-0.2,0-0.2c0-0.2,0-0.4,0-0.6c0-0.2,0.1-0.4,0.1-0.6l0-0.1c0.2,0,0.5,0,0.7,0
		C15.8,119.3,15.8,119.4,15.8,119.5z"/>
	<path class="st0" d="M21.9,121.3L21.9,121.3c-0.1-0.1-0.1-0.2-0.1-0.2c0,0,0-0.1-0.1-0.1c-0.1-0.2-0.1-0.3-0.2-0.5
		c0-0.1-0.1-0.3-0.1-0.4c0,0,0,0,0.1,0c0,0,0.1,0,0.1,0c0.1,0,0.1,0,0.1-0.1c0,0,0-0.1,0-0.1c0,0,0,0,0-0.1c0-0.1,0-0.1-0.1-0.1
		c0,0-0.1,0-0.1-0.1c0,0-0.1,0-0.1,0c0,0-0.1,0-0.1,0c0,0,0,0,0,0c0-0.2-0.1-0.5-0.1-0.7c0-0.2-0.1-0.5-0.1-0.8c0-0.2,0-0.3-0.1-0.5
		c0,0,0-0.1,0-0.1c0,0,0-0.1,0-0.1c0,0,0,0,0,0c0,0,0,0,0-0.1c0,0,0-0.1-0.1-0.1c0,0-0.1,0-0.2,0l0,0c-0.1,0-0.1,0-0.2,0
		c0,0-0.1,0.1-0.1,0.1c0,0,0,0.1,0,0.1c-0.1,0.1-0.1,0.3-0.2,0.4l-0.3,0.6c-0.1,0.2-0.2,0.4-0.3,0.6c-0.1,0.1-0.1,0.2-0.2,0.3
		c-0.1,0.1-0.1,0.2-0.2,0.3c-0.1,0-0.3,0-0.4,0.1c-0.1,0-0.3,0.1-0.4,0.1c0,0,0,0,0,0c0,0-0.1,0.1-0.1,0.1c0,0,0,0.1,0,0.1
		c0,0,0,0,0,0c0,0,0.1,0,0.1,0c0,0,0,0,0,0l0.1,0c0.1,0,0.2,0,0.3,0c0,0,0.1,0,0.1,0c-0.1,0.1-0.2,0.3-0.3,0.4
		c-0.1,0.2-0.3,0.4-0.4,0.6c0,0,0,0,0,0c0,0,0,0.1,0,0.1c0,0.1,0.1,0.1,0.1,0.1c0,0,0.1,0,0.1,0c0,0,0,0,0,0c0,0,0.1,0,0.1-0.1
		c0,0,0,0,0,0c0.1-0.1,0.1-0.2,0.2-0.2c0.1-0.1,0.1-0.2,0.2-0.3c0.1-0.1,0.2-0.2,0.3-0.4c0.1-0.1,0.1-0.2,0.2-0.3
		c0.2,0,0.4,0,0.6-0.1c0.2,0,0.4,0,0.7,0c0,0,0.1,0,0.1,0c0,0,0,0,0.1,0c0,0.1,0.1,0.3,0.1,0.4c0,0.2,0.1,0.3,0.2,0.5
		c0,0.1,0.1,0.2,0.1,0.3c0.1,0.1,0.1,0.2,0.2,0.3c0,0,0,0,0,0c0,0,0,0,0,0c0,0,0.1,0,0.1,0c0,0,0,0,0.1,0c0,0,0.1-0.1,0.1-0.1
		C21.9,121.4,21.9,121.4,21.9,121.3C21.9,121.3,21.9,121.3,21.9,121.3z M20.8,119.5c-0.2,0-0.4,0-0.6,0c-0.1,0-0.3,0-0.4,0
		c0,0,0-0.1,0.1-0.1c0.1-0.1,0.1-0.2,0.2-0.3c0.1-0.2,0.2-0.4,0.3-0.6c0.1-0.2,0.2-0.4,0.3-0.6l0,0c0,0.1,0,0.1,0,0.2
		c0,0.2,0.1,0.5,0.1,0.7C20.8,119.2,20.9,119.3,20.8,119.5C20.9,119.5,20.9,119.5,20.8,119.5z"/>
	<path class="st0" d="M26,119.4c0,0-0.1,0-0.2,0.1c0,0.1-0.1,0.1-0.1,0.2c0,0.1,0,0.1,0.1,0.2C25.9,120,26,120,26,120
		c0,0,0.1,0,0.2-0.1c0-0.1,0.1-0.1,0.1-0.2c0-0.1,0-0.1-0.1-0.2C26.2,119.4,26.1,119.4,26,119.4z"/>
	<path class="st0" d="M26.3,121.5C26.3,121.5,26.3,121.5,26.3,121.5C26.3,121.5,26.3,121.5,26.3,121.5c-0.1,0-0.2,0-0.2,0
		c0,0,0,0,0,0v-0.3c0-0.1,0-0.2,0-0.3c0-0.1,0-0.2,0-0.3c0-0.1,0-0.1,0.1-0.2c0,0,0,0,0,0c0,0,0,0,0-0.1c0,0,0-0.1,0-0.1
		c0-0.1-0.1-0.1-0.2-0.1c-0.1,0-0.1,0-0.2,0.1c0,0-0.1,0.1-0.1,0.2c0,0.1,0,0.1,0,0.2c0,0,0,0.1,0,0.1c0,0,0,0.1-0.1,0.1
		c0,0.1-0.1,0.1-0.1,0.1c0,0-0.1,0.1-0.1,0.1c0,0-0.1,0-0.1,0c0,0,0,0,0,0c-0.1,0-0.1,0-0.1,0c0,0,0,0,0-0.1c0,0,0-0.1,0-0.1
		c0-0.1,0-0.1,0-0.2c0,0,0,0,0,0c0,0,0,0,0,0c0,0,0-0.1,0-0.1c0,0,0-0.1,0-0.1c0,0,0,0-0.1,0c0,0,0,0,0,0c0,0,0,0,0.1,0c0,0,0,0,0,0
		c0-0.1,0.1-0.1,0.1-0.2c0-0.1,0-0.1,0-0.2c0,0,0,0,0,0c0-0.1-0.1-0.1-0.2-0.1c-0.2-0.1-0.3-0.1-0.5,0c-0.1,0-0.1,0.1-0.2,0.2
		c-0.1,0.1-0.2,0.2-0.2,0.4c0,0.1-0.1,0.2-0.1,0.4c0,0,0,0,0,0c0,0,0,0,0,0c0,0,0,0,0,0c0,0,0,0,0,0c-0.1,0-0.1,0-0.2-0.1
		c0,0,0,0,0-0.1c0,0,0,0,0-0.1c0,0,0-0.1,0-0.1c0-0.1,0-0.1,0-0.2c0-0.1,0-0.1,0-0.2c0,0,0-0.1,0-0.1c0,0,0-0.1-0.1-0.1
		c-0.1-0.1-0.1-0.1-0.2-0.1c0,0-0.1,0-0.1,0c0,0,0,0,0,0c0,0,0,0.1-0.1,0.1c0,0,0,0,0,0.1c0,0,0,0,0,0c0,0.1,0,0.1,0,0.2
		c0,0.1,0,0.1,0,0.2c0,0.1,0,0.1,0,0.2c0,0.1,0,0.1-0.1,0.2c0,0.1,0,0.1-0.1,0.2c0,0,0,0.1-0.1,0.1c0,0,0,0-0.1,0.1c0,0,0,0,0,0
		c0,0,0,0-0.1,0c0,0-0.1,0-0.1,0c0,0,0-0.1,0-0.1c0,0,0-0.1,0-0.1c0.1-0.2,0.1-0.4,0.1-0.6c0-0.1,0-0.1-0.1-0.1c0,0,0,0-0.1,0
		c0,0-0.1,0-0.1,0l0,0c0,0-0.1,0-0.1,0.1c0,0,0,0,0,0.1c0,0,0,0.1,0,0.1c0,0,0,0.1,0,0.1c0,0,0,0.1,0,0.1c0,0,0,0.1,0,0.1
		c0,0.1-0.1,0.1-0.1,0.2c0,0-0.1,0.1-0.1,0.1c0,0-0.1,0-0.1,0c0,0,0,0,0,0c0,0,0,0,0,0c0,0,0,0,0-0.1c0,0,0-0.1,0-0.1
		c0-0.1,0-0.2,0-0.2c0-0.1,0-0.2,0-0.2c0,0,0-0.1,0-0.1c0,0,0-0.1,0-0.1c0,0,0-0.1,0-0.1c0-0.1,0-0.1-0.1-0.1c0,0-0.1,0-0.1,0
		c0,0-0.1,0-0.1,0c0,0-0.1,0.1-0.1,0.1c0,0,0,0,0,0.1c0,0.1,0,0.2-0.1,0.3c0,0.1,0,0.2,0,0.4c0,0.1,0,0.3,0.1,0.4c0,0,0,0.1,0.1,0.1
		c0,0,0.1,0.1,0.1,0.1c0.1,0.1,0.1,0.1,0.2,0.1c0,0,0,0,0,0c0,0,0.1,0,0.1,0c0,0,0.1,0,0.1,0c0.1,0,0.1-0.1,0.2-0.1
		c0,0,0.1,0.1,0.1,0.1c0.1,0,0.1,0.1,0.2,0.1c0,0,0,0,0,0c0.1,0,0.2,0,0.3-0.1c0.1-0.1,0.1-0.1,0.2-0.2c0-0.1,0.1-0.1,0.1-0.2
		c0,0,0,0,0,0c0,0,0.1,0,0.1,0.1c0.1,0,0.2,0,0.2,0h0c0.1,0,0.1,0,0.2,0c0,0.1,0.1,0.2,0.1,0.2c0,0,0.1,0.1,0.1,0.1
		c0.1,0,0.1,0.1,0.2,0.1c0,0,0,0,0,0c0.1,0,0.2,0,0.3-0.1c0.1-0.1,0.1-0.1,0.2-0.2c0,0,0,0.1,0.1,0.1c0,0.1,0.1,0.1,0.2,0.1
		c0.2,0.1,0.4,0,0.5-0.1c0,0,0.1,0,0.1-0.1c0,0,0,0,0,0c0,0.1,0,0.2,0,0.3c0,0.1,0,0.1,0,0.2l0,0c0,0-0.1,0-0.1,0
		c-0.3,0.1-0.6,0.3-0.8,0.5c-0.1,0.1-0.2,0.2-0.2,0.3c-0.1,0.1-0.1,0.2-0.1,0.4c0,0.1,0,0.2,0.1,0.3c0.1,0.1,0.1,0.2,0.2,0.2
		c0.1,0,0.1,0.1,0.2,0.1c0,0,0.1,0,0.1,0c0,0,0.1,0,0.1,0c0.1,0,0.2,0,0.2-0.1c0.1,0,0.2-0.1,0.2-0.1c0.1-0.1,0.2-0.2,0.3-0.4
		c0.1-0.1,0.1-0.2,0.1-0.4c0-0.1,0-0.2,0-0.4c0-0.1,0-0.2,0-0.3c0,0,0,0,0,0c0,0,0.1,0,0.1,0c0,0,0,0,0,0c0,0,0,0,0.1,0
		c0,0,0.1,0,0.1-0.1C26.4,121.6,26.4,121.6,26.3,121.5C26.4,121.5,26.3,121.5,26.3,121.5z M24.8,120.3
		C24.8,120.3,24.8,120.3,24.8,120.3c0,0.1,0,0.1-0.1,0.2c0,0,0,0.1,0,0.1v0.1c0,0.1-0.1,0.2-0.2,0.2c0,0-0.1,0.1-0.1,0.1
		c0,0,0,0-0.1,0c0,0,0,0,0,0c0,0,0,0,0-0.1c0,0,0-0.1,0-0.1c0,0,0-0.1,0-0.1c0,0,0,0,0,0c0,0,0-0.1,0-0.1c0,0,0-0.1,0-0.1
		c0-0.1,0.1-0.2,0.1-0.2c0,0,0.1-0.1,0.1-0.1c0,0,0.1,0,0.1,0l0,0c0,0,0,0,0.1,0C24.8,120.1,24.8,120.1,24.8,120.3
		C24.8,120.2,24.9,120.2,24.8,120.3C24.9,120.2,24.8,120.2,24.8,120.3z M25.7,122c0,0.1,0,0.2,0,0.3c0,0.1,0,0.2-0.1,0.3
		c0,0.1,0,0.1-0.1,0.2c0,0.1-0.1,0.1-0.1,0.1c0,0-0.1,0.1-0.2,0.1c-0.1,0-0.1,0-0.2,0.1c0,0,0,0,0,0c0,0,0,0,0,0c0,0-0.1,0-0.1,0
		c0,0-0.1-0.1-0.1-0.1c0-0.1,0-0.1,0-0.2c0,0,0-0.1,0-0.1c0,0,0.1-0.1,0.1-0.1c0-0.1,0.1-0.1,0.1-0.2c0,0,0.1-0.1,0.2-0.1
		c0.1-0.1,0.2-0.2,0.3-0.2C25.6,122,25.6,122,25.7,122C25.7,121.9,25.7,121.9,25.7,122z"/>
	<path class="st0" d="M26.5,119.4c0,0-0.1,0-0.2,0.1c0,0.1-0.1,0.1-0.1,0.2c0,0.1,0,0.1,0.1,0.2c0.1,0.1,0.1,0.1,0.2,0.1
		c0,0,0.1,0,0.2-0.1c0-0.1,0.1-0.1,0.1-0.2c0-0.1,0-0.1-0.1-0.2C26.7,119.4,26.6,119.4,26.5,119.4z"/>
	<path class="st0" d="M27.4,120.6C27.4,120.6,27.4,120.6,27.4,120.6c-0.1,0-0.1,0.1-0.1,0.1c0,0,0,0,0,0c0,0,0,0,0,0c0,0,0,0,0,0
		c-0.1,0.1-0.1,0.1-0.2,0.1c-0.1,0-0.1,0-0.2,0c0,0,0,0,0,0c0,0-0.1,0-0.1,0c0,0,0,0-0.1-0.1c0-0.1,0-0.1-0.1-0.2c0-0.1,0-0.1,0-0.2
		c0,0,0-0.1,0-0.1c0,0,0-0.1,0-0.1c0,0,0,0,0,0c0,0,0-0.1,0-0.1c0,0,0,0,0,0c0,0,0-0.1-0.1-0.1c0,0-0.1,0-0.1,0c0,0,0,0-0.1,0
		c0,0,0,0,0,0c0,0-0.1,0-0.1,0.1c0,0,0,0.1-0.1,0.1c0,0,0,0,0,0.1c0,0,0,0,0,0c0,0.1,0,0.2,0,0.3c0,0.1,0,0.2,0,0.3
		c0,0.1,0.1,0.2,0.2,0.3c0,0.1,0.1,0.1,0.2,0.1c0.1,0,0.1,0,0.2,0c0.1,0,0.2,0,0.4-0.1c0.1-0.1,0.2-0.1,0.2-0.2
		c0.1-0.1,0.1-0.2,0.2-0.2c0,0,0,0,0,0C27.6,120.7,27.5,120.7,27.4,120.6C27.5,120.6,27.4,120.6,27.4,120.6z"/>
	<path class="st0" d="M32.2,119.2c0-0.2,0.1-0.3,0.1-0.5c0-0.1,0-0.2,0-0.3c0-0.1,0-0.2-0.1-0.3c-0.1-0.2-0.1-0.3-0.3-0.5
		c-0.1-0.1-0.3-0.3-0.5-0.3c-0.2-0.1-0.4-0.1-0.6-0.1h0c-0.3,0-0.6,0.1-0.9,0.2c-0.3,0.1-0.6,0.3-0.8,0.5c-0.1,0.1-0.2,0.2-0.3,0.3
		c-0.1,0.1-0.2,0.2-0.2,0.3c0,0.1-0.1,0.1-0.1,0.2c0,0.1,0,0.2,0,0.3c0,0.1,0,0.2,0,0.2c0,0.1,0,0.2,0.1,0.2
		c0.1,0.1,0.2,0.3,0.4,0.3c0.1,0.1,0.2,0.1,0.3,0.1c0.1,0,0.2,0.1,0.3,0.1c0.2,0,0.3,0,0.5,0c0.2,0,0.3,0,0.5,0c0.1,0,0.2,0,0.2,0
		c0.1,0,0.2,0,0.2-0.1c0.1,0,0.1-0.1,0.2-0.1c0.1,0,0.1-0.1,0.2-0.2c0,0,0-0.1,0-0.1c0,0,0,0,0,0c0,0,0,0-0.1,0c0,0,0,0,0,0
		c0,0-0.1,0-0.1,0c0,0-0.1,0-0.1,0c-0.1,0-0.1,0-0.2,0c0,0-0.1,0-0.1,0c-0.2,0-0.4,0.1-0.6,0.1c-0.1,0-0.2,0-0.3,0
		c-0.1,0-0.2,0-0.3,0c-0.1,0-0.1,0-0.2,0c-0.1,0-0.1,0-0.2-0.1c0,0-0.1-0.1-0.1-0.1c0,0-0.1-0.1-0.1-0.1c0,0,0-0.1,0-0.1
		c0,0,0-0.1,0-0.1c0-0.1,0-0.1,0-0.2c0-0.1,0.1-0.1,0.1-0.2c0.1-0.1,0.1-0.1,0.2-0.2c0.1-0.1,0.1-0.1,0.2-0.2
		c0.2-0.2,0.5-0.3,0.7-0.4c0.2-0.1,0.5-0.2,0.8-0.2c0.1,0,0.3,0,0.4,0.1c0.1,0.1,0.3,0.1,0.4,0.2c0.1,0.1,0.1,0.2,0.2,0.3
		c0,0.1,0.1,0.3,0.1,0.4c0,0.1,0,0.3-0.1,0.4c0,0.1-0.1,0.3-0.2,0.4c-0.1,0.3-0.3,0.5-0.5,0.7c-0.2,0.2-0.4,0.4-0.7,0.5
		c-0.3,0.1-0.5,0.2-0.8,0.2c-0.1,0-0.3,0-0.4-0.1c-0.1,0-0.3-0.1-0.4-0.2c-0.1,0-0.1-0.1-0.2-0.2c-0.1-0.1-0.1-0.1-0.1-0.2
		c0,0,0,0,0-0.1c0,0,0-0.1,0-0.1c0,0,0,0,0,0l0,0c0,0,0,0,0,0c0,0,0-0.1,0-0.1c0,0,0,0-0.1-0.1c0,0-0.1,0-0.1,0c0,0-0.1,0-0.1,0.1
		c0,0-0.1,0.1-0.1,0.1c0,0.1,0,0.1,0,0.2c0,0.1,0,0.2,0.1,0.3c0,0.1,0.1,0.1,0.1,0.2c0.1,0.1,0.1,0.1,0.2,0.1
		c0.1,0.1,0.3,0.2,0.5,0.2c0.2,0,0.4,0.1,0.5,0.1c0,0,0,0,0,0c0.2,0,0.4,0,0.6-0.1c0.2,0,0.4-0.1,0.5-0.2c0.3-0.2,0.6-0.4,0.8-0.6
		c0.2-0.3,0.4-0.5,0.5-0.8C32.1,119.5,32.2,119.4,32.2,119.2z"/>
	<path class="st0" d="M39.5,120.7c0,0-0.1,0-0.1,0c0,0,0,0,0,0c0,0-0.1,0.1-0.1,0.1c0,0,0,0,0,0.1c0,0-0.1,0.1-0.1,0.1
		c0,0-0.1,0-0.1,0c0,0-0.1,0-0.1,0c0,0,0,0,0,0c-0.1,0-0.1-0.1-0.2-0.2c0,0,0,0,0-0.1c0,0,0,0,0,0c0,0,0,0,0,0c0,0,0-0.1,0-0.1
		c0.1-0.2,0.2-0.5,0.3-0.7c0.1-0.2,0.1-0.5,0.2-0.7c0-0.1,0-0.2,0.1-0.4c0-0.1,0-0.2,0-0.4c0,0,0-0.1,0-0.2c0-0.1,0-0.1-0.1-0.2
		c-0.1-0.1-0.1-0.1-0.2-0.1c0,0-0.1,0-0.1,0c0,0-0.1,0-0.1,0.1c0,0-0.1,0.1-0.1,0.2c0,0.1-0.1,0.1-0.1,0.2c0,0.1-0.1,0.1-0.1,0.2
		c-0.1,0.2-0.1,0.4-0.2,0.6c0,0.2-0.1,0.3-0.1,0.5c0,0,0,0,0,0c-0.1,0-0.2,0.1-0.3,0.1c-0.1,0.1-0.2,0.2-0.3,0.4
		c-0.1,0.2-0.1,0.3-0.1,0.5c0,0.1,0,0.1,0,0.2c0,0-0.1,0-0.2,0c0,0-0.1,0-0.1,0c0,0,0,0-0.1-0.1c0,0,0-0.1-0.1-0.1c0,0,0-0.1,0-0.1
		l0-0.2c0-0.1,0-0.1,0-0.2c0,0,0-0.1,0-0.1c0,0,0-0.1,0-0.1c0-0.1-0.1-0.1-0.2-0.1c0,0-0.1,0-0.1,0c0,0-0.1,0-0.1,0.1
		c0,0-0.1,0.1-0.1,0.1c0,0,0,0.1,0,0.1c0,0.1-0.1,0.1-0.1,0.2c0,0,0,0.1-0.1,0.1c0,0,0,0,0,0c0,0,0-0.1,0-0.1c0,0,0-0.1,0-0.2
		c0-0.1,0-0.1-0.1-0.2c0,0,0-0.1-0.1-0.1c0,0-0.1,0-0.1,0c0,0-0.1,0-0.1,0c0,0,0,0.1,0,0.1c0,0,0,0,0,0c0,0,0,0.1,0.1,0.1
		c0,0,0,0,0,0c0,0,0,0,0,0c0,0,0,0.1,0,0.1c0,0,0,0,0,0.1c0,0,0,0,0,0c0,0.1,0,0.2,0,0.3c0,0,0,0,0,0.1c0,0,0,0,0,0
		c0,0.1-0.1,0.1-0.1,0.1c0,0-0.1,0.1-0.1,0.1c0,0-0.1,0-0.1,0c0,0,0,0,0,0c-0.1,0-0.1,0-0.1,0c0,0,0,0,0-0.1c0,0,0-0.1,0-0.1
		c0-0.1,0-0.1,0-0.2c0,0,0,0,0,0c0,0,0,0,0,0c0,0,0-0.1,0-0.1c0,0,0-0.1-0.1-0.1c0,0,0,0-0.1,0c0,0,0,0,0,0c0,0,0,0,0.1,0
		c0,0,0,0,0,0c0-0.1,0.1-0.1,0.1-0.2c0-0.1,0-0.1,0-0.2c0,0,0,0,0,0c0-0.1-0.1-0.1-0.2-0.1c-0.2-0.1-0.3-0.1-0.5,0
		c-0.1,0-0.1,0.1-0.2,0.2c-0.1,0.1-0.2,0.2-0.2,0.4c-0.1,0.1-0.1,0.3-0.1,0.4c0,0.1,0,0.1,0,0.2c0,0,0,0,0,0c0,0-0.1,0.1-0.1,0.1
		c-0.1,0.1-0.2,0-0.3,0c0,0-0.1,0-0.1-0.1c0,0-0.1-0.1-0.1-0.1l0,0c0,0,0,0,0,0c0,0,0-0.1,0.1-0.1c0.1-0.1,0.2-0.3,0.2-0.4
		c0.1-0.2,0.1-0.3,0.2-0.5c0.1-0.2,0.1-0.3,0.1-0.5c0-0.2,0.1-0.4,0.1-0.5c0-0.1,0-0.2,0-0.3c0-0.1,0-0.2-0.1-0.3
		c0-0.1-0.1-0.1-0.1-0.2c-0.1-0.1-0.1-0.1-0.2-0.1c-0.1,0-0.2,0-0.2,0.1c-0.1,0-0.1,0.1-0.1,0.2c-0.1,0.1-0.1,0.2-0.1,0.2
		c0,0.1-0.1,0.2-0.1,0.2c-0.1,0.2-0.1,0.4-0.2,0.7c0,0.2-0.1,0.5-0.1,0.7c0,0.1,0,0.2,0,0.3c0,0.1,0,0.2,0.1,0.3c0,0,0,0.1,0,0.1
		c0,0,0,0,0,0c0,0,0,0,0,0c0,0,0,0,0,0c-0.1,0.1-0.2,0.1-0.3,0.1c0-0.1,0-0.1,0-0.2c0-0.1,0-0.2,0-0.3c0-0.1-0.1-0.2-0.1-0.3
		c0,0,0-0.1,0-0.1c0,0,0-0.1-0.1-0.1c0,0,0,0,0,0c0,0,0-0.1,0-0.1c0,0,0,0,0,0c0-0.1,0-0.1-0.1-0.1c0,0-0.1,0-0.1,0c0,0,0,0,0,0
		c0,0-0.1,0-0.1,0c0,0,0,0,0,0c0,0-0.1,0.1-0.1,0.1c0,0,0,0.1,0,0.1c0,0,0,0.1-0.1,0.1c0,0.1-0.1,0.2-0.1,0.2c0,0.1-0.1,0.2-0.1,0.2
		c0,0.1,0,0.1-0.1,0.1c0,0,0,0,0,0c0,0-0.1,0.1-0.1,0.1c0,0,0,0.1,0.1,0.1c0,0,0,0,0,0c0,0,0,0,0,0c0,0,0,0,0,0l0.1,0.1
		c0,0,0.1,0.1,0.1,0.1c0.1,0,0.2,0.1,0.3,0.1c0,0,0,0,0,0h0c0,0,0.1,0,0.1,0c0.1,0,0.2,0,0.3-0.1c0.1,0,0.2-0.1,0.3-0.1
		c0,0,0.1-0.1,0.1-0.1c0,0,0.1,0.1,0.1,0.1c0,0,0.1,0.1,0.1,0.1c0.1,0.1,0.2,0.1,0.3,0.1c0,0,0,0,0,0c0.1,0,0.2,0,0.3-0.1
		c0,0,0,0,0.1-0.1c0,0,0,0,0,0c0,0,0.1,0.1,0.1,0.1c0.1,0,0.1,0.1,0.2,0.1c0,0,0,0,0,0c0.1,0,0.2,0,0.3-0.1c0.1-0.1,0.1-0.1,0.2-0.2
		c0,0,0,0.1,0.1,0.1c0,0.1,0.1,0.1,0.2,0.1c0.2,0.1,0.4,0,0.5-0.1c0,0,0.1,0,0.1-0.1c0,0,0,0,0,0c0,0.1,0.1,0.1,0.2,0.1c0,0,0,0,0,0
		c0.1,0,0.2,0,0.2-0.1c0-0.1,0.1-0.1,0.1-0.2c0-0.1,0.1-0.1,0.1-0.2c0,0,0,0,0,0c0,0.1,0,0.1,0,0.2c0,0.1,0.1,0.2,0.1,0.2
		c0,0.1,0.1,0.1,0.2,0.1c0.1,0,0.1,0,0.2,0c0,0,0,0,0,0c0.1,0,0.2,0,0.3,0c0,0,0,0,0,0c0,0,0,0,0,0c0,0,0.1,0.1,0.2,0.1
		c0.1,0,0.1,0,0.2,0c0.1,0,0.2,0,0.2-0.1c0.1,0,0.1-0.1,0.2-0.1c0,0,0.1-0.1,0.1-0.1c0,0,0.1,0.1,0.1,0.1c0,0,0.1,0.1,0.2,0.1
		c0.1,0,0.2,0.1,0.2,0.1l0,0c0.1,0,0.2,0,0.3-0.1c0.1-0.1,0.2-0.1,0.2-0.2c0,0,0-0.1,0.1-0.1c0,0,0,0,0-0.1
		C39.5,120.8,39.5,120.8,39.5,120.7C39.5,120.7,39.5,120.7,39.5,120.7z M32.7,120.8C32.7,120.9,32.7,120.9,32.7,120.8
		c0,0.1-0.1,0.1-0.1,0.1c-0.1,0-0.1,0-0.2,0c0,0,0,0,0,0c0,0-0.1,0-0.1-0.1c0,0,0,0,0,0c0-0.1,0.1-0.2,0.1-0.2
		c0-0.1,0.1-0.1,0.1-0.2c0,0.1,0,0.1,0.1,0.2C32.7,120.6,32.7,120.7,32.7,120.8C32.7,120.8,32.7,120.8,32.7,120.8z M33.6,120.4
		C33.6,120.3,33.6,120.3,33.6,120.4c0-0.2,0-0.3,0-0.4c0-0.2,0-0.4,0.1-0.6c0-0.2,0.1-0.4,0.1-0.6c0-0.1,0-0.1,0.1-0.2
		c0-0.1,0.1-0.1,0.1-0.2c0,0,0,0,0-0.1c0,0,0,0,0,0c0,0,0,0,0,0c0,0,0,0,0,0c0,0,0,0.1,0,0.1c0,0.1,0,0.1,0,0.2c0,0.2,0,0.4-0.1,0.6
		c0,0.2-0.1,0.4-0.2,0.6c0,0.1-0.1,0.2-0.1,0.3C33.7,120.3,33.6,120.3,33.6,120.4z M35.2,120.3C35.1,120.3,35.1,120.3,35.2,120.3
		c0,0.1,0,0.1-0.1,0.2c0,0,0,0.1,0,0.1v0.1c0,0.1-0.1,0.2-0.2,0.2c0,0-0.1,0.1-0.1,0.1c0,0,0,0-0.1,0c0,0,0,0,0,0c0,0,0,0,0-0.1
		c0,0,0-0.1,0-0.1c0,0,0-0.1,0-0.1c0-0.1,0-0.2,0.1-0.3c0-0.1,0.1-0.2,0.1-0.2c0,0,0.1-0.1,0.1-0.1c0,0,0.1,0,0.1,0l0,0
		c0,0,0,0,0.1,0C35.1,120.1,35.1,120.1,35.2,120.3C35.2,120.2,35.2,120.2,35.2,120.3C35.2,120.2,35.2,120.2,35.2,120.3z M38.2,120.7
		c0,0,0,0.1-0.1,0.1c0,0-0.1,0.1-0.1,0.1c0,0-0.1,0-0.1,0c0,0,0,0-0.1,0c0,0,0,0,0,0c0,0,0-0.1,0-0.1c0,0,0,0-0.1-0.1c0,0,0,0,0,0
		c0,0,0,0,0,0c0,0,0,0,0,0c0-0.1,0-0.2,0.1-0.3c0-0.1,0.1-0.2,0.2-0.3c0.1-0.1,0.1-0.1,0.2-0.1c0,0,0,0.1,0,0.1c0,0.1,0,0.2,0,0.2
		C38.2,120.4,38.2,120.5,38.2,120.7C38.2,120.6,38.2,120.7,38.2,120.7z M38.5,120c0-0.1,0-0.2,0-0.3c0-0.1,0-0.3,0.1-0.4
		c0-0.2,0.1-0.3,0.1-0.5c0,0,0-0.1,0-0.1c0,0.1,0,0.2,0,0.4c0,0.2-0.1,0.5-0.1,0.7C38.6,119.8,38.5,119.9,38.5,120z"/>
	<path class="st0" d="M78.4,0c-0.5,0-0.9,0.1-1.2,0.4C76.6,1,76.7,2.1,77,4.2c0.4,3.5,1,12.4-0.8,19.5C75.3,26.9,74,29,74,29
		c-0.1,0-0.2,0-0.3-0.1c-0.6-0.7-0.2-2.3,0-3.7c0.1-0.5,0.1-0.9,0.2-1.2C75.1,11.3,74,2.7,72,0.5c-0.4-0.5-0.9-0.6-1.2-0.6
		c0,0,0,0-0.1,0c-0.3,0-0.5,0.1-0.7,0.3c-0.5,0.5-0.4,1.3-0.3,3.3c0.2,3.3,0.5,9.3-1,19.8c-0.5,3.6-1.1,6-2,5.7
		c-0.9-0.3-0.6-1.1-0.5-2.8c0-0.5,0.1-1.1,0.1-1.6c0.5-8.9-0.8-21.7-2.5-23.5c-0.3-0.3-0.6-0.4-0.8-0.4c-0.1,0-0.2,0-0.3,0
		c-1.2,0.3-1.2,2.1-1,6.5c0.1,3.6,0.2,8.6-0.4,14.3c-0.2-1.9-1-3.6-2-4.7c-1.8-1.9-4.1-2-5.6-1.7c0.4-1.1,0.8-2.7,0.7-4.3
		c-0.1-2-1.2-3.4-2.7-4.2c-3.8-2.1-8.2,0.1-9.6,2.8c-1.1-1.6-2.5-3.5-4.7-4c-3.2-0.7-7.7,0.3-10.1,2.3c-3.1,2.6-1.4,7.2-0.1,9.7
		c-2-0.1-4.6,0.4-5.8,3.2c-0.6,1.4-0.2,3.5,1,5.3c1.7,2.5,4.2,3.9,6.9,3.9c2.2,0,4.1-0.8,5.5-1.7l-5,9.5c-4.9,0.1-5.1,0.3-5.4,0.5
		c-0.3,0.2-2.5,2-5.2,4.5c0.2-0.7,0.2-1.2,0-1.6c-0.2-0.4-0.4-0.8-0.8-1.1c0-0.3-0.2-0.6-0.4-1c-0.9-1.3-2-1.2-2.8-1
		c-0.2-0.4-0.5-0.7-0.9-0.9c-2.8-1.4-11,2.4-12.8,3.5c-1.7,1.1-1.6,4,0.4,8.9c1.2,3,2.7,5.7,3.1,6.3c-0.3,0.1-0.6,0.3-1.1,0.6
		l2.7,4.2l-0.9,0.4c0,0,7.8,10.6,11.4,12.8c2.8,1.7,10,2.9,13.4,3.4l7.4,18.2l0,0.4c0,0.1-0.9,11.1-1.8,16.6l-0.1,0.8l0.8,0
		c0,0,2.5,0.1,6.1,0.2c-0.1,0.6-0.3,1.1-0.4,1.6c-3.8,0.5-8.1,1.2-7.8,2c0.2,0.6,3.5,0.7,7.1,0.7c-0.3,1-0.5,1.7-0.6,2
		c-0.2,0.8-0.1,1.6,0.3,2.2c0.4,0.6,1.1,0.9,1.8,0.9l0,0c1.1,0,2.4-0.7,3.1-2.7c0.1-0.4,0.4-1.3,0.7-2.6c2.9-0.1,5.1-0.3,5.1-0.3
		l1.1-1.4c0,0,1.1,1.7,2.2,1.7c1.1,0,17,2.2,16.2,0c-0.8-2.2-13.6-2.5-13.6-2.5s1.6-0.6,3.8-1.6c4.9-0.2,8.5-0.7,10.6-1.3l0.6-0.2
		l-0.1-0.6c0-0.2-0.2-1.4-0.5-3.3c0.9-0.6,1.6-1.2,1.8-1.6c0.9-2.1-3.3-12-4.6-15l0.6-0.3l-5.5-11.3c3.4,0,12.2-0.2,12.4-2.2
		c0.1-1.7-7.9-6.4-13.7-9.6c0,0,0,0,0,0c-0.3-0.3-0.7-0.6-1.2-0.9c0.2-1.1,0.5-2.5,0.8-3.9c0.3,0,0.7-0.1,1-0.2
		c1.7-0.5,3.1-2.5,3.5-5.2c0.3-2-0.1-5.1-1.8-6.7c0.1-0.5,0.3-0.9,0.4-1.1c1.1-2.4,3.4-2.7,5.8-3.6c1.7-0.6,3.4-1.2,4.2-2.4
		C79,40.1,81,33,81.5,27.9c1.4-12.5-0.7-25.6-2.3-27.5C79,0.1,78.7,0,78.4,0z M79.5,27.1c-0.6,4.9-2.5,11.7-5,15.2
		c-0.6,0.8-2,1.4-3.6,1.9c-2.4,0.9-5.4,2-6.7,4.9c-0.1,0.2-0.2,0.4-0.3,0.7c-0.9-0.2-1.8-0.2-2.6,0.1c0.3-1.2,0.5-2.3,0.7-3.1l0-0.1
		c0.1-1.6-0.9-2.6-1.8-3.5c-0.8-0.8-1.5-1.5-1.5-2.6c0-1,0.7-3.5,1.4-6.2c0.5-2,1.1-4,1.5-5.8c1.9-8.6,1.7-16.4,1.5-21.5
		c-0.1-1.8-0.1-3.6,0-4.6C64.1,5.2,65,15,64.5,24c0,0.6-0.1,1.1-0.1,1.6c-0.2,2.4-0.3,4.1,0.5,5c0.4,0.4,0.9,0.6,1.6,0.6
		c2.6-0.1,3.1-3.8,3.6-7.6c1.5-10.7,1.2-16.8,1-20.1c0-0.8-0.1-1.5-0.1-2c1,1.2,2.3,7.3,0.9,22.5c0,0.3-0.1,0.7-0.1,1.1
		c-0.4,2.5-0.6,4.6,0.3,5.7c0.3,0.4,0.8,0.6,1.3,0.6c0,0,0,0,0,0c0,0,0.1,0,0.1,0c1.9-0.1,3.5-4.1,4-6.9c2-10.4,1.2-17,0.8-20.5
		c-0.1-1.1-0.3-2.3-0.2-2.7C79.3,2.9,80.9,14.8,79.5,27.1z M60.2,28.3c-0.4,1.8-0.9,3.8-1.5,5.7c-0.8,2.9-1.5,5.3-1.5,6.5
		c0,1.7,1,2.7,1.9,3.6c0.9,0.9,1.4,1.5,1.4,2.4c-0.2,1-0.5,2.4-0.9,4c-0.2,0.1-0.4,0.2-0.6,0.3c-1.8-6.6-5.3-12.7-5.5-13l-0.2-0.4
		h-0.5c0,0-0.2,0-0.6,0l-1.2-6.5c0.1,0,0.1,0,0.2,0c3,0,6.2-0.5,8.2-2.9c0.6-0.7,1-1.4,1.3-2.1C60.6,26.7,60.4,27.5,60.2,28.3z
		 M37,26.4c0.4-0.4,0.7-0.7,0.7-0.8c0.2-0.3,1.4-1.6,1.1-1.9c-0.3-0.2-0.7,0.4-1.8,1.3c0,0-3,3-7.5,3.1c-2.6,0.1-4-1-5.1-2.6
		c-1-1.5-1.2-3-0.7-4c1.5-3.4,4.6-2.5,4.8-2.5c0.3,0.1,1.6,1.2,1.8,0.9c0.2-0.2-0.2-0.7-1-2c0-0.1-3.8-5.4-0.1-8.5
		c2-1.7,5-2.4,7.7-1.9c2.2,0.5,3.7,1.5,4.5,3.2c0.1,0.2-0.5,1.9-0.3,2c0.2,0,0.6-1,1.5-2.2c0.1-0.2,3.7-4.4,8-2
		c1.2,0.6,1.9,1.5,2.2,2.6c0.6,2.2-0.5,4.9-0.5,4.9c-0.4,1.2-1,1.8-0.8,2c0.2,0.2,1.1-1.1,1.4-1.2c0.1-0.1,3.4-1.4,5.5,0.9
		c1.7,1.9,2.1,5.9-0.3,9.1c-1.3,1.8-5.9,3.3-8.8,2.4c-2.9-1-5.2-2.4-5.2-2.4c-0.3-0.3-0.7,0-0.4,0.3c0.1,0.1,2,2.4,5.2,3.4
		c0.1,0,0.1,0,0.2,0.1l0.9,6.8c-0.7,0-1.5,0-2.3,0c0-1.3,0-6.9-0.3-7.4c-0.3-0.4-0.7,6-0.8,7.4c-0.4,0-0.8,0-1.3,0
		c0.2-1.4,0.8-6.6,0.4-6.6c-0.4,0-1.4,5.3-1.6,6.6c-1.5,0-3.2,0-4.8,0c-2.9,0-5.2,0.1-7.1,0.1L37,26.4z M25.3,39.5
		c1.8-0.3,17.2-0.4,27.1-0.4c0.8,1.5,3.7,7,5.2,12.8c-0.5,0.4-0.9,0.7-0.9,0.8c-0.3,0.3-1,0.8-0.7,1.2c0.2,0.2,0.4,0.1,0.7-0.1
		c0.2-0.1,0.3-0.3,0.5-0.4c0,0,0.3-0.2,0.7-0.5c0.4-0.2,0.9-0.5,1.5-0.7c0,0,0,0,0.1,0c0.2-0.1,0.5-0.2,0.7-0.2
		c0.2-0.1,0.5-0.1,0.8-0.2c0.8-0.2,1.7-0.2,2.5,0.1c0.2,0.1,0.4,0.2,0.6,0.3c0,0,0,0,0,0c0.5,0.3,0.9,0.8,1.1,1.4
		c0.5,1.1,0.5,2.4,0.3,3.5c-0.3,1.8-1,3.2-1.9,3.7c-0.1,0.1-0.2,0.1-0.3,0.1c-0.4,0.1-0.9,0.2-1.3,0.2c-0.2,0-0.5,0-0.7,0
		c-0.5,0-1-0.1-1.4-0.1c-0.4-0.1-0.7-0.1-1-0.2c-0.3-0.1-0.5-0.1-0.7-0.2c0,0,0,0,0,0c-0.3-0.1-0.6-0.2-0.6-0.2c0,0-0.1,0-0.1-0.1
		c-0.1-0.1-0.3-0.2-0.4-0.3c-0.3-0.1-0.5-0.2-0.6,0c-0.2,0.4,0.5,1,0.9,1.2c-0.2,0.9-0.4,1.8-0.5,2.6c-0.2,0.2-0.3,0.5-0.5,0.7
		c-1.7-0.4-3.3-0.6-4.4-0.3c-1.1,0.3-1.5,0.9-1.6,1.4c-0.2,0.6-0.1,1.3,0.3,1.9c0.2,0.4,0.6,0.7,1,1c-0.1,0-0.2,0.1-0.3,0.1
		c-0.6,0.1-1.1,0.3-1.5,0.5c-0.2,0.1-0.3,0.3-0.4,0.4c-1.6,0.7-3.3,1.3-5.1,1.7c1.4-0.8,3.1-2.1,3.4-3c0.7-1.8,0.5-8.3,0.3-11.5
		c0.1-2.2-0.2-4-0.2-4.1c0,0,0,0,0-0.1c0.3-0.3,0.6-0.8,0.6-1.2c0-1-0.7-1.9-1.7-1.9c-1,0-1.9,0.7-1.9,1.7c0,0.9,0.6,1.7,1.5,1.9
		c0.4,2.6,1.2,9.3-1.6,10.9c-2.8,1.6-16.3,0.1-22.6-0.7l2.7-3c0.3-0.3,1.1-0.8,0.9-1.2c-0.2-0.3-1.1,0-1.5,0.2
		c-1.7,0.6-7.8,0.6-10.2-1.3c-0.6-0.5-0.9-1-0.8-1.7c0-0.3,0.2-0.5,0.4-0.7c2-1.3,10.4-0.4,14.2,1.2c0.9,0.4,1.6,0.1,0.3-0.7
		c0.4-0.4,0.7-1,0.9-1.8c0.4-1.3,0-1.1-0.6,0c-0.4,0.7-0.7,1-1.1,1.5c-2.1-0.6-11.6-3.6-14.6-1.5c-0.7,0.5-1.1,1.1-1.2,1.9
		c-0.1,1.2,0.4,2.3,1.5,3.1c2.1,1.7,6.2,2.1,9,2l-2.1,2c-0.2,0.2-0.3,0.6-0.2,0.9c0.1,0.3,0.4,0.5,0.7,0.6c1.2,0.2,7.4,1,13.4,1.3
		c4.7,0.2,9.1,0.1,10.9-0.9c0.9-0.5,1.6-1.3,2.1-2.3c0.1,1.4,0.3,3.6-0.2,4.8c-0.3,0.8-2.7,2.6-3.7,3C39.5,72,30.9,69,28,67.7
		c-0.3-0.2-1-0.7-1.2-0.4c-0.2,0.3,0.2,0.8,0.4,1.1l1.5,3.7c-3.1-0.7-6.6-2.2-9.6-4c-4.8-2.9-7.9-6.2-8.4-9.2
		C9.5,53.3,20.8,43.1,25.3,39.5z M71.7,110.9c-1.4,0.4-3.4,0.7-6,0.9c-3.3,0.3-7.6,0.4-12.7,0.4c-1.4,0-2.8,0-4.2,0
		c1.2-4.5,2.7-10.2,4.2-15.7c0.2-0.9,0.5-1.9,0.7-2.8c0-0.2,0.1-0.4,0.1-0.5l11.9-2.8c0.2,0.2,0.3,0.5,0.5,0.8
		c0.2,0.3,0.4,0.7,0.5,1.1c2.2,4.8,3.8,12.6,4.5,16.6C71.5,109.7,71.6,110.4,71.7,110.9z M45.3,119.6c-0.4,1.3-1.2,1.7-1.7,1.7l0,0
		c-0.3,0-0.6-0.1-0.7-0.3c-0.2-0.2-0.2-0.6-0.1-1c0.1-0.3,0.3-1.2,0.7-2.4c0.2-0.8,0.5-1.7,0.7-2.8c0.1-0.4,0.2-0.9,0.4-1.4
		c0.1-0.2,0.1-0.5,0.2-0.7c0.1-0.2,0.1-0.5,0.2-0.7c0-0.1,0-0.1,0.1-0.2c0.6-2.2,1.2-4.6,1.9-7.2c0.6-2.3,1.2-4.7,1.9-7.1
		c0.3-1,0.6-2.1,0.8-3.1c0-0.1,0.1-0.3,0.1-0.4c0.1-0.3,0.1-0.5,0.2-0.8c0.1-0.3,0.1-0.5,0.2-0.8c1.9-7,3.5-13.3,4.1-15.1l1.3,0.3
		l1.1,0.2c-0.1,0.3-0.2,0.7-0.3,1.1c-0.4,1.3-0.9,3.3-1.5,5.8c-0.2,0.6-0.3,1.3-0.5,2c-0.4,1.6-0.9,3.3-1.4,5.1
		c-0.1,0.3-0.1,0.5-0.2,0.8c-0.1,0.3-0.1,0.5-0.2,0.8c0,0.2-0.1,0.3-0.1,0.5c-0.3,1-0.5,1.9-0.8,2.9c-1.4,5.4-2.9,11-4.1,15.3
		c-0.1,0.2-0.1,0.5-0.2,0.7c-0.1,0.2-0.1,0.5-0.2,0.7c0,0,0,0,0,0.1c-0.1,0.3-0.2,0.7-0.3,1c-0.3,1.2-0.6,2.2-0.8,3
		C45.6,118.6,45.4,119.3,45.3,119.6z M18,41.3c0.2,0.3,0.3,1,0,1.5c-0.5,0.8-2.5,1.6-4.8,2.3c-0.3-0.2-0.6-0.3-0.9-0.4
		C15.3,43.5,17.2,42.4,18,41.3z M9.5,51.3c0.1-0.3,0.2-0.7,0.3-1c0.4,0.2,0.8,0.4,1.2,0.5c-0.3,0.2-0.6,0.4-0.9,0.5
		c-0.2,0.1-0.4,0.2-0.5,0.3L9.5,51.3z M10.5,53.3l-0.1-0.2c0.1,0,0.2-0.1,0.3-0.2C10.7,53.1,10.6,53.2,10.5,53.3z M14.7,47.4
		c-0.1-0.4-0.2-0.8-0.4-1.1c0-0.1-0.1-0.1-0.1-0.2c1-0.4,2.1-0.8,3-1.3C16.3,45.6,15.5,46.5,14.7,47.4z M11,45.9
		C11,45.9,11,45.9,11,45.9c0.2-0.1,0.3-0.2,0.5-0.3c0.1,0,0.2-0.1,0.4-0.1c0.6,0,1.2,0.4,1.5,0.9c0,0,0,0,0,0c0.6,1,0.4,1.8,0.1,2.5
		c-0.4,0.8-1.2,1.2-1.4,1.2c0,0,0,0-0.1,0c-0.1,0,0.1-0.2,0.3-0.4c0.2-0.2,0.4-0.5,0.6-0.8c0.1-0.2,0.2-0.5,0.1-0.7
		c-0.1-0.4-0.6,0.8-1.6,1c-0.2,0-0.8,0.2-1.3-0.1c-0.1,0-0.1-0.1-0.2-0.2c-0.4-0.4-0.3-0.8-0.1-1.3C9.9,46.9,10.5,46.3,11,45.9z
		 M29.6,69.6c2.4,0.9,6.3,2.3,9.6,2.7c-2.2,0.3-4.4,0.4-6.5,0.4c-0.1,0-0.3,0-0.5,0c-0.3,0-0.6,0-0.9-0.1L29.6,69.6z M50.4,74
		c0,0.1,0,0.2-0.1,0.3c-6.3,1.6-12.6,3.5-12.7,4.1C37.6,79,40.9,86.8,44,94L43.7,94c-2.9-6.1-7.1-15.2-7-15.9
		C36.8,77.2,46,75.1,50.4,74z M50.4,76c0.8,0,1.5,0.6,1.5,1.3c0,0.7-0.7,1.3-1.5,1.3c-0.8,0-1.5-0.6-1.5-1.3
		C49,76.6,49.6,76,50.4,76z M46.7,88.8c0,0.7-0.7,1.3-1.5,1.3c-0.8,0-1.5-0.6-1.5-1.3c0-0.7,0.7-1.3,1.5-1.3
		C46,87.4,46.7,88,46.7,88.8z M42.5,80.1c0,0.7-0.7,1.3-1.5,1.3c-0.8,0-1.5-0.6-1.5-1.3c0-0.7,0.7-1.3,1.5-1.3
		C41.8,78.8,42.5,79.4,42.5,80.1z M56.8,86c0,0.7-0.6,1.2-1.3,1.3c0.2-0.8,0.4-1.6,0.6-2.4C56.5,85.1,56.8,85.5,56.8,86z M61.8,80.1
		l0.1-0.3v0l0-0.1l0.3-0.9l0.4-1.3l0.2-0.7l0.2-0.7l0.1-0.4l0.1-0.4c0.2,0,0.4,0.1,0.5,0.1L63.6,77l-0.1,0.8l-0.1,1l0,0.3l0,0.1
		l-0.2,1.1l-0.1,0L61.8,80.1z M61.2,72.2c-0.1,0.3-0.2,0.6-0.3,0.8c0,0,0,0,0,0.1c-0.3,0.8-0.5,1.4-0.5,1.4c0,0-0.1,0.1-0.1,0.2
		c-0.2,0.4-0.5,1.1-0.2,1.3c0.2,0.1,0.4-0.1,0.6-0.3c0.2-0.2,0.4-0.5,0.5-0.8l0.3,0.1l-0.5,1.5l-1.1,3.6c-0.8,0-1.5-0.1-2.1-0.1
		c0,0,0,0,0,0c-0.1,0-0.3-0.1-0.5-0.3c0.3-1.2,0.5-2,0.6-2.2l0.2-0.7l-0.1,0c-0.1-0.2-0.6-0.2-1-0.2l-3.6-0.7
		c-1-0.4-1.8-0.9-1.7-1.4c0.2-1.1,2.2-0.7,4.3-0.4c0.3,0.1,0.5,0.1,0.5,0.1c0.5,0.1,1.4,0.2,1.5-0.3c0.1-0.5-0.9-0.6-1.4-0.7
		c-0.2,0-0.4-0.1-0.7-0.1c-2.6-0.5-4.8-1.5-5.2-2.2c0-0.1-0.1-0.2-0.1-0.3c0.1-0.4,0.7-0.5,1.7-0.6c1.2-0.1,2.9,0.1,4.6,0.4
		c0.4,0.1,0.6,0.1,0.7,0.1c0.2,0,0.4,0.1,0.6,0c0.3,0,0.5-0.1,0.6-0.4c0.1-0.4-0.4-0.6-0.9-0.7c-0.1,0-0.1,0-0.2,0
		c-0.1,0-0.3-0.1-0.5-0.1c-0.7-0.1-1.7-0.4-2.7-0.8c-0.5-0.2-1-0.4-1.4-0.6c-0.1-0.1-0.3-0.1-0.4-0.2c-0.8-0.5-1.2-1-1-1.6
		c0.2-0.5,1.5-0.4,3,0c0.3,0.1,0.6,0.1,0.9,0.2c0.1,0,0.3,0.1,0.4,0.1c0,0,0.1,0,0.1,0c0.1,0,0.3,0.1,0.4,0.1c0,0,0.1,0,0.1,0
		c0.2,0.1,0.4,0.1,0.7,0.2c0,0,0,0,0.1,0c0.3,0.1,0.6,0.2,0.9,0.3c0.1,0,0.2,0.1,0.3,0.1c0.2,0.1,0.4,0.1,0.5,0.2
		c0.4,0.2,0.8,0.3,1.2,0.5c0.4,0.2,0.8,0.4,1.1,0.6c0.3,0.2,0.5,0.3,0.6,0.5C62.1,69.8,61.6,71.1,61.2,72.2z M39.3,99
		c0.1-1.1,0.2-2,0.2-2.5c0,0,0-0.1,0-0.1l1.7-0.4l1.4-0.3l1.5-0.4l0.1,0l0.4-0.1l3.5-0.8c0,0.1-0.1,0.2-0.1,0.4
		c-0.3,1-0.6,2.1-0.9,3.2c-0.5,2-1.1,4.1-1.7,6.4c-0.6,2.3-1.2,4.5-1.7,6.5c-0.1,0.4-0.2,0.8-0.3,1.1c-2.6-0.1-4.6-0.2-5.6-0.2
		C38.4,108.1,38.9,102.5,39.3,99z M60.3,66c-0.4-0.2-0.8-0.3-1.3-0.5c-0.3-0.2-0.6-0.3-0.9-0.4c0.5-0.8,1-1.6,1.3-2.5
		c0.4,0.2,0.9,0.3,1.5,0.4C60.7,64.1,60.5,65.1,60.3,66z M46.5,52.3c-0.6,0-1-0.5-1-1c0-0.6,0.5-1,1-1c0.6,0,1,0.5,1,1
		C47.5,51.9,47,52.3,46.5,52.3z M16.9,40.2c0.3,0.8-2.4,2.5-6.9,4.2c-0.3-0.3-0.5-0.5-0.8-0.8c2.1-0.5,6-1.6,6.4-3.9
		C16.2,39.6,16.6,39.8,16.9,40.2z M3.7,48.9c-1.8-4.3-2.2-6.7-1.6-7.1c3.4-2.1,11.5-4.5,12-2.8c0.4,1.3-2.4,2.8-5.9,3.8
		c-0.4-0.3-0.8-0.5-1.1-0.5c-0.5,0-0.3,0.7,0.5,1.4c0.5,0.4,1.1,1.2,1.5,1.7c-0.1,0.1-0.3,0.3-0.4,0.5c-0.8-1.1-2-1.9-2.9-2.5
		c-0.4-0.2-1.2-0.6-1.4-0.2c-0.2,0.4,0.3,0.5,1.1,1.3c0,0,4,2.7,2.3,6.5c0,0,0,0,0,0c0,0,0,0.1,0,0.1c0,0,0,0.1,0,0.1
		c0,0,0,0.1,0,0.1c0,0,0,0.1,0,0.1c0,0,0,0.1,0,0.1c0,0,0,0.1,0,0.1c0,0,0,0.1,0,0.1c0,0,0,0.1,0,0.1c0,0,0,0,0,0l1.4,2.6l-2.3,0.9
		C6.3,54.2,4.7,51.2,3.7,48.9z M6.7,57.2L9.5,56c-0.2,0.9-0.3,1.8-0.3,2.6l-1.7,0.7L6.7,57.2z"/>
	<path class="st0" d="M56.9,56.7c0.1,0,0.1,0,0.2-0.1c0.3-0.2,0.8-0.5,1.3-0.7c0,0,0.1,0,0.1-0.1c0,0,0.1,0,0.1-0.1
		c0.2-0.1,0.4-0.2,0.6-0.2c0.2-0.1,0.5-0.1,0.7-0.2c0,0,0,0,0.1,0c0.7-0.2,1.2-0.2,1.5-0.2c0.1,0,0.2,0.2,0.3,0.4
		c0.1,0.4,0.2,0.9,0.3,1.3c0.1,0.6,0.1,1.2,0.1,1.6c0,0.2,0,0.4,0,0.5c0,0.3,0,0.6,0.1,0.6c0,0,0,0,0,0c0.2,0,0.4-0.1,0.6-0.3
		c0.7-0.7,1-2.8,0.6-4.1c0-0.2-0.1-0.4-0.2-0.5c-0.1-0.3-0.3-0.6-0.5-0.8c-0.2-0.2-0.5-0.3-0.7-0.4c-0.5-0.2-1.1-0.1-1.7,0.1
		c-0.2,0.1-0.4,0.2-0.6,0.3c-0.1,0-0.1,0.1-0.2,0.1c-0.3,0.1-0.6,0.3-0.8,0.5c-0.2,0.1-0.4,0.3-0.6,0.4c-0.7,0.5-1.2,0.9-1.4,1.1
		c0,0,0,0,0,0C56.6,56.4,56.7,56.7,56.9,56.7z"/>
	<path class="st0" d="M33.8,52.6c0,0.1,0.1,2.2,1.9,2.7c0.2,0.1,0.5,0.1,0.7,0.1c1.5,0.1,2.2-1,2.4-1.7c0.1-0.2-0.1-0.3-0.2-0.1
		c-0.3,0.4-1,1.4-2.7,1c-0.1,0-0.3-0.1-0.4-0.2c0.6-0.3,1-1.4,1.1-2.6c0.1-1.5-0.5-2.8-1.3-2.9c-0.8,0-1.5,1.2-1.5,2.7
		C33.7,52,33.7,52.3,33.8,52.6C33.8,52.6,33.8,52.6,33.8,52.6z"/>
	<path class="st0" d="M23.8,54.2c0.2,0.1,0.3,0.1,0.5,0.1c0.6,0,1-0.2,1.3-0.5c0,0,0,0,0,0c0,0,0.1-0.1,0.1-0.1c0,0,0,0,0,0
		c0.1-0.1,0.1-0.2,0.2-0.3c0,0,0,0,0,0c0,0,0,0,0,0c0.3-0.5,0.4-1.1,0.5-1.9c0.1-1.5-0.5-2.7-1.2-2.8c-0.7,0-1.4,1.1-1.5,2.6
		c0,1,0.2,1.9,0.6,2.4c-0.1,0-0.2,0-0.4,0c-0.9-0.2-1.2-1.5-1.2-1.5c0-0.2-0.3-0.2-0.3,0C22.5,52.2,22.5,53.8,23.8,54.2z"/>
	<path class="st0" d="M41.6,43.3c0,0,0.4-1.4-1.2-2.6c-1-0.9-2.5-0.5-2.5-0.5S40.3,41.3,41.6,43.3z"/>
	<path class="st0" d="M28.1,42.5c0,0-0.9-1.1-2.8-0.6c-1.3,0.3-1.9,1.8-1.9,1.8S25.7,42.4,28.1,42.5z"/>
</g>
</svg>
